<svg width="24" height="24" viewBox="0 0 24 24" fill="none" xmlns="http://www.w3.org/2000/svg">
<path d="M23.5628 12.2444C18.9433 10.9685 18.0556 10.0808 16.7808 5.46235C16.7088 5.20246 16.4726 5.02246 16.2025 5.02246C15.9325 5.02246 15.6963 5.20247 15.6243 5.46235C14.3495 10.0808 13.4619 10.9684 8.84224 12.2444C8.58234 12.3164 8.40234 12.5526 8.40234 12.8227C8.40234 13.0927 8.58236 13.3289 8.84224 13.4009C13.4618 14.6757 14.3483 15.5633 15.6243 20.183C15.6963 20.4429 15.9325 20.6229 16.2025 20.6229C16.4726 20.6229 16.7088 20.4428 16.7808 20.183C18.0567 15.5634 18.9432 14.6769 23.5628 13.4009C23.8227 13.3289 24.0027 13.0927 24.0027 12.8227C24.0027 12.5526 23.8227 12.3164 23.5628 12.2444Z" fill="#DC3545"/>
<path d="M2.65181 5.67829C5.46225 6.45459 5.95828 6.95077 6.73363 9.76012C6.80564 10.02 7.04302 10.2 7.31192 10.2C7.58082 10.2 7.81933 10.02 7.89021 9.76012C8.66539 6.9508 9.16156 6.45451 11.972 5.67829C12.2319 5.60629 12.4119 5.37002 12.4119 5.10001C12.4119 4.82999 12.2319 4.59372 11.972 4.52172C9.16159 3.74542 8.66556 3.24924 7.89021 0.439894C7.81933 0.180001 7.58194 0 7.31192 0C7.0419 0 6.80564 0.180013 6.73363 0.439894C5.95733 3.25034 5.46116 3.7455 2.65181 4.52172C2.39192 4.59372 2.21191 4.82999 2.21191 5.10001C2.21191 5.37002 2.39193 5.60629 2.65181 5.67829Z" fill="#DC3545"/>
<path d="M10.3609 18.0224C7.37617 17.1988 6.80244 16.625 5.9787 13.6413C5.90669 13.3814 5.67043 13.2014 5.40041 13.2014C5.13039 13.2014 4.89413 13.3814 4.82212 13.6413C3.99856 16.6249 3.42476 17.1989 0.439893 18.0224C0.180001 18.0944 0 18.3307 0 18.6007C0 18.8707 0.180013 19.107 0.439893 19.179C3.42465 20.0037 3.99839 20.5763 4.82212 23.56C4.89413 23.8199 5.13039 23.9999 5.40041 23.9999C5.67043 23.9999 5.90669 23.8199 5.9787 23.56C6.80226 20.5753 7.37606 20.0024 10.3609 19.179C10.6208 19.107 10.8008 18.8707 10.8008 18.6007C10.8008 18.3307 10.6197 18.0944 10.3609 18.0224Z" fill="#DC3545"/>
</svg>
