<svg width="71" height="71" viewBox="0 0 71 71" fill="none" xmlns="http://www.w3.org/2000/svg">
<circle cx="35" cy="27" r="24" fill="#FF5A1E"/>
<g filter="url(#filter0_f_196_91371)">
<circle cx="35.5" cy="35.5" r="15.5" fill="#FF5A1E"/>
</g>
<path d="M42.4003 33C42.7837 32.2499 43 31.4002 43 30.5C43 27.4624 40.5376 25 37.5 25C34.4624 25 32 27.4624 32 30.5C32 33.5376 34.4624 36 37.5 36L44 36C44 36 43 35 42.4143 33.0292M41.85 27C41.9484 26.5153 42 26.0137 42 25.5C42 21.3579 38.6421 18 34.5 18C30.3579 18 27 21.3579 27 25.5C27 26.3766 27.1504 27.2181 27.4268 28C28.501 31.0117 26 33 26 33H32.5" stroke="white" stroke-width="1.5" stroke-linecap="round" stroke-linejoin="round"/>
<defs>
<filter id="filter0_f_196_91371" x="0" y="0" width="71" height="71" filterUnits="userSpaceOnUse" color-interpolation-filters="sRGB">
<feFlood flood-opacity="0" result="BackgroundImageFix"/>
<feBlend mode="normal" in="SourceGraphic" in2="BackgroundImageFix" result="shape"/>
<feGaussianBlur stdDeviation="10" result="effect1_foregroundBlur_196_91371"/>
</filter>
</defs>
</svg>
