<svg width="30" height="32" viewBox="0 0 30 32" fill="none" xmlns="http://www.w3.org/2000/svg">
<path d="M2.2031 32H27.7315C28.3906 32 29.007 31.7102 29.4275 31.2017C29.8479 30.696 30.0184 30.0341 29.8962 29.3864L26.3394 10.5226C26.1434 9.48285 25.2344 8.72715 24.1747 8.72715H18.6463C19.5923 7.80106 20.1804 6.51409 20.1804 5.09084C20.1804 2.28404 17.8964 0 15.0896 0C12.2828 0 9.99873 2.28404 9.99873 5.09084C9.99873 6.51409 10.5868 7.80106 11.5328 8.72715H5.76017C4.70055 8.72715 3.78863 9.48285 3.5954 10.5226L0.0386454 29.3864C-0.0835129 30.0341 0.0869396 30.696 0.507388 31.2017C0.927833 31.7102 1.54406 32 2.2031 32ZM11.4532 5.09128C11.4532 3.08563 13.0838 1.45496 15.0895 1.45496C17.0951 1.45496 18.7258 3.08563 18.7258 5.09128C18.7258 7.09692 17.0951 8.72759 15.0895 8.72759C13.0838 8.72759 11.4532 7.09692 11.4532 5.09128ZM1.46784 29.656L5.02459 10.7923C5.08993 10.4372 5.39958 10.1815 5.76036 10.1815H24.1747C24.5354 10.1815 24.8451 10.4372 24.9104 10.7923L28.4672 29.656C28.524 29.9572 28.3933 30.1731 28.3081 30.2725C28.2229 30.3748 28.0382 30.5452 27.7314 30.5452H2.20302C1.8962 30.5452 1.7087 30.3748 1.62632 30.2725C1.54109 30.1731 1.41102 29.9572 1.46784 29.656Z" fill="#FF5A1E"/>
</svg>
