<svg width="27" height="32" viewBox="0 0 27 32" fill="none" xmlns="http://www.w3.org/2000/svg">
<g clip-path="url(#clip0_32_70095)">
<path d="M19.4918 0.0152203H16.2059C16.097 0.00553466 15.9881 0 15.8778 0V0.0152203H7.50817C3.29862 0.0152203 0 7.04008 0 16.0062C0 24.9724 3.29862 31.9972 7.50817 31.9972V32H19.4904V31.9972C23.7014 31.9972 26.9986 24.9724 26.9986 16.0062C26.9986 7.04008 23.7028 0.0152203 19.4918 0.0152203ZM7.50817 1.12215C10.9652 1.12215 13.8847 7.93808 13.8847 16.0062C13.8847 24.0744 10.9638 30.8903 7.50817 30.8903C4.05255 30.8903 1.1316 24.0744 1.1316 16.0062C1.1316 7.93808 4.05255 1.12215 7.50817 1.12215ZM15.0163 16.0062C15.0163 9.15571 13.0912 3.43841 10.3046 1.12215H11.9186C15.3756 1.12215 18.2952 7.93808 18.2952 16.0062C18.2952 24.0744 15.3742 30.8903 11.9186 30.8903V30.8931H10.3004C13.0884 28.5782 15.0149 22.8595 15.0149 16.0062H15.0163ZM19.4282 16.0062C19.4282 9.15571 17.503 3.43841 14.7165 1.12215H16.1522C19.4876 1.47222 22.2543 8.13733 22.2543 15.991C22.2543 23.8447 19.3334 30.8751 15.8778 30.8751V30.8931H14.7136C17.5016 28.5782 19.4282 22.8595 19.4282 16.0062ZM19.4918 30.8903V30.8931H18.653C21.4509 28.5879 23.3859 22.8595 23.3859 15.991C23.3859 9.1225 21.4693 3.44809 18.6926 1.12215H19.4918C22.9489 1.12215 25.8684 7.93808 25.8684 16.0062C25.8684 24.0744 22.9475 30.8903 19.4918 30.8903Z" fill="#A1C8B0"/>
<path d="M7.35133 24.5573C9.38255 24.5573 10.4448 20.2555 10.4448 16.0076C10.4448 11.7598 9.38255 7.45799 7.35133 7.45799C5.3201 7.45799 4.25781 11.7598 4.25781 16.0076C4.25781 20.2555 5.3201 24.5573 7.35133 24.5573ZM7.35133 8.56354C8.01756 8.56354 9.31324 11.1911 9.31324 16.0063C9.31324 20.8214 8.01756 23.449 7.35133 23.449C6.6851 23.449 5.38941 20.8214 5.38941 16.0063C5.38941 11.1911 6.6851 8.56354 7.35133 8.56354Z" fill="#A1C8B0"/>
</g>
<defs>
<clipPath id="clip0_32_70095">
<rect width="27" height="32" fill="white"/>
</clipPath>
</defs>
</svg>
