<svg width="37" height="40" viewBox="0 0 37 40" fill="none" xmlns="http://www.w3.org/2000/svg">
<g clip-path="url(#clip0_32_70101)">
<path d="M13.3717 1.12635V0.0929136C14.4107 0.0929136 15.4181 0.44631 16.3655 1.12635H18.0355C17.7765 1.0644 17.5175 1.03343 17.2571 1.03343V-1.14441e-05H9.2417C10.3264 -1.14441e-05 11.3768 0.385768 12.36 1.12635H13.3703H13.3717Z" fill="#873773"/>
<path d="M20.9062 1.12635V-1.14441e-05H18.1743C18.9786 0.163311 19.7585 0.543459 20.4984 1.12635H20.9076H20.9062Z" fill="#873773"/>
<path d="M27.7581 1.12635V-1.14441e-05H24.3264C25.4112 -1.14441e-05 26.4616 0.385768 27.4447 1.12635H27.7581Z" fill="#873773"/>
<path d="M24.325 1.12635V-1.14441e-05H20.9062C21.991 -1.14441e-05 23.0414 0.385768 24.0245 1.12635H24.325Z" fill="#873773"/>
<path d="M24.0245 1.12635C23.0428 0.385768 21.9924 -1.14441e-05 20.9062 -1.14441e-05V1.12635H24.0245Z" fill="#873773"/>
<path d="M27.4435 1.12635C26.4618 0.385768 25.4114 -1.14441e-05 24.3252 -1.14441e-05V1.12635H27.4435Z" fill="#873773"/>
<path d="M18.0356 1.12635H20.4984C19.7586 0.543459 18.9801 0.163311 18.1744 -1.14441e-05H17.2571V1.03343C17.5161 1.03343 17.7766 1.06581 18.0356 1.12635Z" fill="#873773"/>
<path d="M13.3718 0.092927V1.12637H16.3656C15.4197 0.446324 14.4122 0.092927 13.3718 0.092927Z" fill="#873773"/>
<path d="M9.24316 0.563171C9.96012 0.563171 10.657 0.758876 11.3239 1.12635H12.3614C11.3797 0.385768 10.3293 -1.14441e-05 9.24316 -1.14441e-05V0.563171Z" fill="#873773"/>
<path d="M11.3225 1.12635C10.6556 0.758877 9.95866 0.563171 9.2417 0.563171V1.12635H11.3225Z" fill="#873773"/>
<path d="M34.4126 6.01619C32.6782 2.13587 30.3141 0 27.7582 0V1.12636C29.8032 1.12636 31.8468 3.07357 33.3651 6.46955C34.9722 10.0612 35.8566 14.8511 35.8566 19.9535C35.8566 25.056 34.9722 29.8458 33.3651 33.4375C31.8468 36.8335 29.8032 38.7807 27.7582 38.7807V38.7835H27.4405C28.7743 37.7811 29.9821 36.1253 30.9824 33.8909C32.651 30.1584 33.5698 25.2094 33.5698 19.9535C33.5698 14.6976 32.651 9.74868 30.9824 6.01619C29.9835 3.78317 28.7771 2.13024 27.4463 1.12636H24.328C26.373 1.12636 28.4165 3.07357 29.9349 6.46955C31.5419 10.0612 32.4263 14.8511 32.4263 19.9535C32.4263 25.056 31.5419 29.8458 29.9349 33.4375C28.4165 36.8335 26.373 38.7807 24.328 38.7807V38.7835H24.0232C25.3569 37.7811 26.5647 36.1253 27.565 33.8909C29.2336 30.1584 30.1524 25.2094 30.1524 19.9535C30.1524 14.6976 29.2336 9.74868 27.565 6.01619C26.5662 3.78317 25.3598 2.13024 24.0289 1.12636H20.9106C22.9556 1.12636 24.9991 3.07357 26.5175 6.46955C28.1231 10.0627 29.009 14.8511 29.009 19.9535C29.009 25.056 28.1246 29.8444 26.5175 33.4375C24.9991 36.8335 22.9556 38.7807 20.9106 38.7807V38.7835H20.2495C21.6333 37.7923 22.8855 36.1028 23.9158 33.798C25.5844 30.0655 26.5032 25.1165 26.5032 19.8606C26.5032 14.6047 25.5844 9.65575 23.9158 5.92327C22.9484 3.75924 21.785 2.13868 20.5013 1.12777H18.0385C19.8159 1.55297 21.5417 3.41288 22.8669 6.37663C24.4739 9.96832 25.3583 14.7582 25.3583 19.8606C25.3583 24.963 24.4739 29.7529 22.8669 33.3446C21.3485 36.7406 19.305 38.6878 17.26 38.6878V38.7849H16.6103C17.8954 37.774 19.0603 36.1521 20.0291 33.9852C21.6977 30.2527 22.6164 25.3038 22.6164 20.0479C22.6164 14.792 21.6977 9.84301 20.0291 6.11052C19.0002 3.80852 17.7494 2.12038 16.367 1.12777H13.3732V1.2207C15.4182 1.2207 17.4618 3.1679 18.9801 6.56389C20.5872 10.1556 21.4716 14.9454 21.4716 20.0479C21.4716 25.1503 20.5872 29.9402 18.9801 33.5319C17.6507 36.504 15.9205 38.3654 14.1374 38.7849H12.3572C13.6909 37.7825 14.8987 36.1267 15.8991 33.8923C17.5677 30.1598 18.4864 25.2108 18.4864 19.9549C18.4864 14.699 17.5677 9.75009 15.8991 6.0176C14.9002 3.78458 13.6938 2.13164 12.3629 1.12777H9.24463C11.2896 1.12777 13.3332 3.07497 14.8515 6.47096C16.4572 10.0641 17.343 14.8525 17.343 19.9549C17.343 25.0574 16.4586 29.8458 14.8515 33.4389C13.3332 36.8349 11.2896 38.7821 9.24463 38.7821C7.19965 38.7821 5.1561 36.8349 3.63775 33.4389C2.03067 29.8472 1.14628 25.0574 1.14628 19.9549C1.14628 14.8525 2.03067 10.0627 3.63775 6.47096C5.1561 3.07497 7.19965 1.12777 9.24463 1.12777V0C6.6859 0 4.32323 2.13587 2.58735 6.01619C0.918739 9.74727 0 14.6976 0 19.9535C0 25.2094 0.918739 30.1584 2.58735 33.8909C4.32179 37.7698 6.6859 39.9071 9.24177 39.9071V39.9099H13.3704V40C13.6723 40 13.9728 39.969 14.2691 39.9099H27.7568V39.9071C30.3141 39.9071 32.6768 37.7712 34.4112 33.8909C36.0798 30.1584 36.9986 25.2094 36.9986 19.9535C36.9986 14.6976 36.0798 9.74868 34.4112 6.01619H34.4126Z" fill="#873773"/>
<path d="M6.26663 27.2214C6.95354 29.4051 7.91378 30.5597 9.04574 30.5597C10.1777 30.5597 11.1379 29.4051 11.8249 27.2214C12.4373 25.2714 12.7751 22.6906 12.7751 19.9535C12.7751 17.2165 12.4373 14.6343 11.8249 12.6857C11.1379 10.5019 10.1777 9.3474 9.04574 9.3474C7.91378 9.3474 6.95354 10.5019 6.26663 12.6857C5.65414 14.6357 5.31641 17.2165 5.31641 19.9535C5.31641 22.6906 5.65414 25.2728 6.26663 27.2214ZM9.04574 10.4724C10.099 10.4724 11.6302 14.1654 11.6302 19.9535C11.6302 25.7416 10.1004 29.4347 9.04574 29.4347C7.99105 29.4347 6.46125 25.7416 6.46125 19.9535C6.46125 14.1654 7.99105 10.4724 9.04574 10.4724Z" fill="#873773"/>
</g>
<defs>
<clipPath id="clip0_32_70101">
<rect width="37" height="40" fill="white"/>
</clipPath>
</defs>
</svg>
