<svg width="19" height="28" viewBox="0 0 19 28" fill="none" xmlns="http://www.w3.org/2000/svg">
<g clip-path="url(#clip0_32_70098)">
<path d="M12.407 0H6.59159C2.89607 0 0 6.14923 0 13.998C0 21.8467 2.89607 27.996 6.59296 27.996V27.9987H12.4084V27.996C16.1053 27.996 19.0014 21.8467 19.0014 13.998C19.0014 6.14923 16.1039 0 12.407 0ZM6.59159 1.0748C9.57131 1.0748 12.0875 6.99295 12.0875 13.998C12.0875 21.003 9.57131 26.9212 6.59159 26.9212C3.61187 26.9212 1.097 21.0044 1.097 13.998C1.097 6.9916 3.61324 1.0748 6.59296 1.0748H6.59159ZM9.27374 26.8285C11.5966 24.6856 13.1832 19.8086 13.1832 13.998C13.1832 8.18732 11.5966 3.3104 9.27374 1.16751C11.9628 1.9454 14.1252 7.50348 14.1252 13.998C14.1252 20.4925 11.9628 26.0506 9.27374 26.8285ZM11.3827 26.7626C13.6672 24.5862 15.2222 19.7495 15.2222 13.9993C15.2222 8.24912 13.6686 3.41116 11.3827 1.23468C13.9785 2.22081 16.0354 7.66604 16.0354 13.9993C16.0354 20.3326 13.9785 25.7765 11.3827 26.7626ZM13.3258 26.7317C15.5925 24.5405 17.1324 19.7227 17.1324 13.9993C17.1324 8.27599 15.5925 3.45684 13.3258 1.26693C15.8845 2.33098 17.9016 7.72919 17.9016 13.9993C17.9016 20.2695 15.8859 25.6677 13.3258 26.7317Z" fill="#FF5A1E" fill-opacity="0.5"/>
<path d="M6.45589 21.5082C8.26046 21.5082 9.20524 17.7302 9.20524 13.998C9.20524 10.2657 8.26046 6.48779 6.45589 6.48779C4.65133 6.48779 3.70654 10.2657 3.70654 13.998C3.70654 17.7302 4.65133 21.5082 6.45589 21.5082ZM6.45589 7.56259C6.66021 7.56259 7.10312 8.00595 7.48844 9.22585C7.88885 10.4928 8.10825 12.1869 8.10825 13.998C8.10825 17.9895 7.03867 20.4334 6.45589 20.4334C6.25158 20.4334 5.80866 19.99 5.42334 18.7701C5.02294 17.5032 4.80354 15.809 4.80354 13.998C4.80354 10.0064 5.87311 7.56259 6.45589 7.56259Z" fill="#FF5A1E" fill-opacity="0.5"/>
</g>
<defs>
<clipPath id="clip0_32_70098">
<rect width="19" height="28" fill="white"/>
</clipPath>
</defs>
</svg>
