<?xml version="1.0" standalone="no"?>
<!DOCTYPE svg PUBLIC "-//W3C//DTD SVG 1.1//EN" "http://www.w3.org/Graphics/SVG/1.1/DTD/svg11.dtd" >
<svg xmlns="http://www.w3.org/2000/svg" xmlns:xlink="http://www.w3.org/1999/xlink" version="1.1">
<metadata>
Created by FontForge 20201107 at Fri Sep  6 10:37:59 2024
 By 
Copyright (c) 2017 by atipo. All rights reserved.
</metadata>
<defs>
<font id="Archia-Medium" horiz-adv-x="1232" >
  <font-face 
    font-family="Archia Medium"
    font-weight="500"
    font-stretch="normal"
    units-per-em="2048"
    panose-1="2 0 5 3 0 0 0 2 0 4"
    ascent="1536"
    descent="-512"
    x-height="1069"
    cap-height="1434"
    bbox="-326 -471 2279 1935"
    underline-thickness="102"
    underline-position="-204"
    unicode-range="U+000D-2212"
  />
<missing-glyph horiz-adv-x="1163" 
d="M70 0v1434h1024v-1434h-1024zM582 809l348 522h-697zM172 195l348 522l-348 522v-1044zM991 195v1044l-348 -522zM233 102h697l-348 523z" />
    <glyph glyph-name="ellipsis" unicode="&#x2e;&#x2e;&#x2e;" horiz-adv-x="1542" 
d="M283 -27q-56 0 -96 38.5t-40 92.5q0 55 40 94.5t96 39.5q55 0 94 -39t39 -95q0 -54 -39 -92.5t-94 -38.5zM772 -27q-56 0 -95.5 38.5t-39.5 92.5q0 55 39.5 94.5t95.5 39.5q54 0 93.5 -39.5t39.5 -94.5q0 -54 -39.5 -92.5t-93.5 -38.5zM1262 -27q-56 0 -96 38.5t-40 92.5
q0 55 40 94.5t96 39.5q55 0 94 -39t39 -95q0 -54 -39 -92.5t-94 -38.5z" />
    <glyph glyph-name="degree.alt" unicode="&#xb0;C" horiz-adv-x="2027" 
d="M416 860q-134 0 -218.5 86t-84.5 213q0 125 86 213t217 88q132 0 218.5 -87.5t86.5 -211.5q0 -128 -85.5 -214.5t-219.5 -86.5zM1368 -27q-90 0 -174 32t-150.5 89.5t-106.5 146t-40 193.5v565q0 105 40 193.5t106.5 146t150.5 89.5t174 32t174 -32t150.5 -89.5
t106.5 -146t40 -193.5v-12h-205v4q0 118 -75.5 196.5t-190.5 78.5t-190.5 -78.5t-75.5 -196.5v-551q0 -118 75 -195t191 -77t191 77t75 195v6h205v-12q0 -105 -40 -193.5t-106.5 -146t-150.5 -89.5t-174 -32zM416 1008q68 0 108.5 43.5t40.5 109.5q0 65 -41 108.5t-108 43.5
q-65 0 -106.5 -44.5t-41.5 -109.5q0 -64 41 -107.5t107 -43.5z" />
    <glyph glyph-name=".notdef" horiz-adv-x="1163" 
d="M70 0v1434h1024v-1434h-1024zM582 809l348 522h-697zM172 195l348 522l-348 522v-1044zM991 195v1044l-348 -522zM233 102h697l-348 523z" />
    <glyph glyph-name=".null" horiz-adv-x="0" 
 />
    <glyph glyph-name="nonmarkingreturn" horiz-adv-x="682" 
 />
    <glyph glyph-name="NULL" horiz-adv-x="0" 
 />
    <glyph glyph-name="NULL" horiz-adv-x="0" 
 />
    <glyph glyph-name="CR" unicode="&#xd;" horiz-adv-x="0" 
 />
    <glyph glyph-name="space" unicode=" " horiz-adv-x="552" 
 />
    <glyph glyph-name="exclam" unicode="!" horiz-adv-x="647" 
d="M238 389l-19 1045h209l-16 -1045h-174zM326 -27q-57 0 -97.5 38.5t-40.5 92.5q0 55 40.5 94.5t97.5 39.5q54 0 92.5 -39.5t38.5 -94.5q0 -54 -38.5 -92.5t-92.5 -38.5z" />
    <glyph glyph-name="quotedbl" unicode="&#x22;" horiz-adv-x="765" 
d="M160 1001l-17 433h185l-17 -433h-151zM455 1001l-15 433h185l-17 -433h-153z" />
    <glyph glyph-name="numbersign" unicode="#" horiz-adv-x="1437" 
d="M256 0l80 381h-223l32 172h226l67 319h-221l33 172h225l82 390h184l-79 -390h251l82 390h185l-80 -390h225l-33 -172h-229l-66 -319h228l-35 -172h-229l-80 -381h-185l78 381h-254l-80 -381h-184zM557 553h254l68 319h-254z" />
    <glyph glyph-name="dollar" unicode="$" horiz-adv-x="1214" 
d="M526 -174v154q-192 24 -316 151t-124 313h209q0 -99 62 -171t169 -95v477q-49 12 -84 23t-78.5 29t-74.5 38.5t-62.5 51.5t-50.5 68t-31 88t-12 112q0 150 105.5 260t287.5 131v113h158v-113q80 -11 149.5 -41t127.5 -80.5t92 -130t34 -178.5h-210q0 92 -50.5 154
t-142.5 82v-439q42 -11 70 -19t67.5 -21.5t67 -26.5t60.5 -33t55.5 -42t45 -52.5t36 -65t22 -79t8.5 -95.5q0 -163 -115.5 -277.5t-316.5 -134.5v-151h-158zM526 866v398q-92 -18 -138 -73t-46 -126q0 -79 47.5 -124.5t136.5 -74.5zM684 174q101 15 161 70.5t60 138.5
q0 98 -57 149.5t-164 83.5v-442z" />
    <glyph glyph-name="percent" unicode="%" horiz-adv-x="1683" 
d="M453 834q-136 0 -226 90t-90 221q0 132 90 223.5t224 91.5q140 0 231.5 -91t91.5 -224q0 -130 -92 -220.5t-229 -90.5zM199 0l1077 1434h211l-1079 -1434h-209zM455 981q72 0 115.5 47t43.5 117t-45 118t-116 48q-69 0 -112.5 -48t-43.5 -118q0 -69 44.5 -116.5
t113.5 -47.5zM1227 -27q-136 0 -227 90t-91 222t90.5 223.5t225.5 91.5q138 0 229.5 -91.5t91.5 -223.5q0 -131 -91.5 -221.5t-227.5 -90.5zM1227 121q72 0 114.5 46.5t42.5 117.5t-43.5 117.5t-115.5 46.5q-70 0 -114 -47t-44 -117t45 -117t115 -47z" />
    <glyph glyph-name="ampersand" unicode="&#x26;" horiz-adv-x="1400" 
d="M604 -25q-114 0 -210.5 39t-159 103.5t-97.5 147.5t-35 173q0 148 85.5 268t246.5 185l-219 291v252h823v-185h-626v-14l592 -789q45 107 45 248h190q0 -243 -106 -420l206 -274h-237l-92 123q-167 -148 -406 -148zM604 156q173 0 291 118l-346 463q-125 -32 -187.5 -114
t-62.5 -177q0 -125 89.5 -207.5t215.5 -82.5z" />
    <glyph glyph-name="quotesingle" unicode="'" horiz-adv-x="481" 
d="M164 1001l-17 433h185l-17 -433h-151z" />
    <glyph glyph-name="parenleft" unicode="(" horiz-adv-x="786" 
d="M506 -293q-150 0 -236 79.5t-86 236.5v1224q0 157 86 236.5t236 79.5h45v-185h-31q-73 0 -103 -33t-30 -100v-1220q0 -67 30 -100.5t103 -33.5h31v-184h-45z" />
    <glyph glyph-name="parenright" unicode=")" horiz-adv-x="786" 
d="M236 -293v184h30q73 0 103 33.5t30 100.5v1220q0 67 -30 100t-103 33h-30v185h45q150 0 235.5 -79.5t85.5 -236.5v-1224q0 -157 -85.5 -236.5t-235.5 -79.5h-45z" />
    <glyph glyph-name="asterisk" unicode="*" horiz-adv-x="985" 
d="M434 731l23 244l-17 6l-153 -190l-84 86l190 153l-8 17l-242 -23v119l242 -23l8 15l-190 153l84 86l155 -190l15 6l-23 244h117l-23 -244l15 -6l155 190l84 -86l-188 -153l6 -15l242 23v-119l-242 23l-6 -17l188 -153l-84 -86l-153 190l-17 -6l23 -244h-117z" />
    <glyph glyph-name="plus" unicode="+" horiz-adv-x="993" 
d="M403 129v420h-393v176h393v420h187v-420h393v-176h-393v-420h-187z" />
    <glyph glyph-name="comma" unicode="," horiz-adv-x="555" 
d="M145 -227l37 452h224l-97 -452h-164z" />
    <glyph glyph-name="hyphen" unicode="-" horiz-adv-x="813" 
d="M133 518v189h547v-189h-547z" />
    <glyph glyph-name="period" unicode="." horiz-adv-x="563" 
d="M283 -27q-56 0 -96 38.5t-40 92.5q0 55 40 94.5t96 39.5q55 0 94 -39t39 -95q0 -54 -39 -92.5t-94 -38.5z" />
    <glyph glyph-name="slash" unicode="/" horiz-adv-x="999" 
d="M92 -221l623 1757h192l-624 -1757h-191z" />
    <glyph glyph-name="zero" unicode="0" horiz-adv-x="1257" 
d="M629 -27q-90 0 -174 32t-150.5 89.5t-106.5 146t-40 193.5v565q0 105 40 193.5t106.5 146t150.5 89.5t174 32t174 -32t150.5 -89.5t106.5 -146t40 -193.5v-565q0 -105 -40 -193.5t-106.5 -146t-150.5 -89.5t-174 -32zM629 168q116 0 191 77t75 195v551q0 118 -75.5 196.5
t-190.5 78.5t-191 -79t-76 -196v-551q0 -118 75.5 -195t191.5 -77z" />
    <glyph glyph-name="one" unicode="1" horiz-adv-x="1083" 
d="M229 0v188h287v1047h-14l-328 -172v205l315 166h232v-1246h260v-188h-752z" />
    <glyph glyph-name="two" unicode="2" horiz-adv-x="1196" 
d="M156 0v258l559 559q108 111 108 225q0 98 -64.5 162t-174.5 64q-104 0 -170 -70t-66 -174h-194q0 80 28 156.5t80 139.5t137 101.5t189 38.5q101 0 186.5 -34.5t141 -92t86 -131t30.5 -153.5q0 -105 -40.5 -182.5t-117.5 -157.5l-520 -504v-17h688v-188h-886z" />
    <glyph glyph-name="three" unicode="3" horiz-adv-x="1226" 
d="M594 -27q-107 0 -193.5 40t-138.5 104.5t-80 140t-28 152.5h198q0 -100 68.5 -171t173.5 -71q113 0 192.5 73t79.5 191q0 115 -77 184.5t-203 69.5h-160v242l410 303v16h-650v185h848v-285l-385 -270v-17h15q80 0 149 -27.5t116 -72t80 -101t48.5 -113.5t15.5 -110
q0 -197 -130 -330t-349 -133z" />
    <glyph glyph-name="four" unicode="4" horiz-adv-x="1280" 
d="M774 0v346h-651v223l549 865h305v-902h182v-186h-182v-346h-203zM319 532h455v703h-16l-439 -686v-17z" />
    <glyph glyph-name="five" unicode="5" horiz-adv-x="1208" 
d="M596 -27q-192 0 -320.5 110t-138.5 310h193q12 -113 82 -171t178 -58q115 0 189.5 77.5t74.5 196.5q0 121 -74 200t-202 79q-45 0 -85.5 -13t-66 -31.5t-44 -36.5t-26.5 -31l-8 -13h-180l47 842h766v-189h-586l-26 -426h14q101 84 229 84q131 0 235 -64t159 -169.5
t55 -231.5q0 -204 -131.5 -334.5t-333.5 -130.5z" />
    <glyph glyph-name="six" unicode="6" horiz-adv-x="1255" 
d="M625 -27q-129 0 -237 62t-171 172t-63 244q0 132 77 270l390 713h233l-305 -527l12 -10q40 16 98 16q186 0 314.5 -131.5t128.5 -330.5q0 -200 -139 -339t-338 -139zM627 168q117 0 193.5 81.5t76.5 201.5q0 117 -76.5 199.5t-193.5 82.5q-114 0 -190.5 -82.5
t-76.5 -199.5q0 -121 76 -202t191 -81z" />
    <glyph glyph-name="seven" unicode="7" horiz-adv-x="1112" 
d="M293 0l520 1229v16h-514v-145h-186v334h897v-230l-500 -1204h-217z" />
    <glyph glyph-name="eight" unicode="8" horiz-adv-x="1255" 
d="M627 -25q-210 0 -341.5 120t-131.5 313q0 69 21 129.5t55 102.5t70.5 71t74.5 47v16q-66 37 -115 116t-49 183q0 171 121.5 279t294.5 108q177 0 297 -107.5t120 -279.5q0 -104 -48.5 -183.5t-114.5 -115.5v-16q39 -18 75.5 -46.5t71 -71t55.5 -103t21 -129.5
q0 -193 -133 -313t-344 -120zM627 856q97 0 156 60.5t59 148.5q0 89 -58.5 149t-156.5 60q-97 0 -155 -60t-58 -149q0 -88 58.5 -148.5t154.5 -60.5zM627 164q124 0 196 72.5t72 173.5q0 115 -75 182t-193 67q-116 0 -191.5 -67.5t-75.5 -181.5q0 -101 72 -173.5t195 -72.5z
" />
    <glyph glyph-name="nine" unicode="9" horiz-adv-x="1255" 
d="M399 0l306 526l-11 11q-42 -17 -98 -17q-186 0 -314 132t-128 331q0 200 139 338.5t336 138.5q199 0 336 -137t137 -340q0 -130 -78 -270l-391 -713h-234zM627 700q115 0 191.5 83t76.5 200q0 121 -76 202t-192 81t-192.5 -81.5t-76.5 -201.5q0 -117 77 -200t192 -83z
" />
    <glyph glyph-name="colon" unicode=":" horiz-adv-x="563" 
d="M283 735q-56 0 -96 39t-40 94q0 54 40 92.5t96 38.5q55 0 94 -38.5t39 -92.5q0 -56 -39 -94.5t-94 -38.5zM283 -27q-56 0 -96 38.5t-40 92.5q0 55 40 94.5t96 39.5q55 0 94 -39t39 -95q0 -54 -39 -92.5t-94 -38.5z" />
    <glyph glyph-name="semicolon" unicode=";" horiz-adv-x="565" 
d="M285 735q-56 0 -95.5 39t-39.5 94q0 54 39.5 92.5t95.5 38.5q55 0 94 -38.5t39 -92.5q0 -56 -39 -94.5t-94 -38.5zM154 -227l36 452h226l-99 -452h-163z" />
    <glyph glyph-name="less" unicode="&#x3c;" horiz-adv-x="1122" 
d="M983 176l-846 354v215l846 353v-195l-653 -258v-14l653 -262v-193z" />
    <glyph glyph-name="equal" unicode="=" horiz-adv-x="993" 
d="M10 721v174h973v-174h-973zM10 362v177h973v-177h-973z" />
    <glyph glyph-name="greater" unicode="&#x3e;" horiz-adv-x="1122" 
d="M137 176v193l654 262v14l-654 258v195l846 -353v-215z" />
    <glyph glyph-name="question" unicode="?" horiz-adv-x="1103" 
d="M420 389v178q0 91 30.5 142.5t98.5 97.5l100 70q62 42 89.5 84.5t27.5 105.5q0 90 -58.5 148.5t-158.5 58.5q-102 0 -163.5 -65t-61.5 -165h-191q0 81 26.5 155t76.5 132.5t131 93.5t182 35q192 0 307 -110.5t115 -276.5q0 -115 -47 -191t-133 -132l-109 -70
q-36 -24 -51 -47t-15 -66v-178h-196zM520 -27q-54 0 -93.5 38.5t-39.5 92.5q0 55 39.5 94.5t93.5 39.5q57 0 95 -39t38 -95q0 -54 -38.5 -92.5t-94.5 -38.5z" />
    <glyph glyph-name="at" unicode="@" horiz-adv-x="1869" 
d="M932 -305q-168 0 -321.5 64t-267 174t-180.5 267.5t-67 336.5q0 177 64.5 333.5t176 269.5t269.5 178.5t338 65.5q182 0 339 -62.5t263.5 -168t167 -245.5t60.5 -294q0 -238 -95.5 -363.5t-253.5 -125.5q-88 0 -145.5 39.5t-83.5 107.5h-16q-34 -58 -104 -102.5
t-171 -44.5q-165 0 -275 111.5t-110 293.5q0 178 105 291t264 113q87 0 147.5 -34t91.5 -79h17v97h174v-512q0 -58 29.5 -91.5t87.5 -33.5q81 0 127.5 82t46.5 247q0 126 -47 238.5t-131.5 197t-211.5 134t-278 49.5q-149 0 -276 -55.5t-212.5 -150.5t-133.5 -220.5
t-48 -265.5q0 -195 86 -352t237 -244.5t337 -87.5q213 0 377 90l75 -129q-75 -50 -196.5 -84.5t-255.5 -34.5zM926 287q96 0 159.5 63.5t63.5 181.5q0 106 -61 172t-162 66q-95 0 -157 -65t-62 -175q0 -109 62 -176t157 -67z" />
    <glyph glyph-name="A" unicode="A" horiz-adv-x="1388" 
d="M33 0l518 1434h293l512 -1434h-219l-115 324h-660l-114 -324h-215zM430 514h524l-254 721h-16z" />
    <glyph glyph-name="B" unicode="B" horiz-adv-x="1351" 
d="M147 0v176h134v1081h-134v177h613q205 0 322.5 -105.5t117.5 -271.5q0 -98 -44 -174t-122 -121v-12q39 -17 74 -43.5t68 -66.5t53 -97.5t20 -124.5q0 -128 -63 -224.5t-163.5 -145t-221.5 -48.5h-654zM485 827h269q105 0 170 59.5t65 153.5q0 93 -65 150t-166 57h-273
v-420zM485 186h285q118 0 191 60.5t73 177.5q0 116 -79 174.5t-199 58.5h-271v-471z" />
    <glyph glyph-name="C" unicode="C" horiz-adv-x="1589" 
d="M827 -29q-156 0 -292.5 57.5t-232.5 156.5t-151 237t-55 295q0 155 55.5 292.5t151.5 236.5t232 156.5t292 57.5q241 0 422 -131.5t252 -351.5h-225q-54 131 -175 208t-274 77q-223 0 -368.5 -155.5t-145.5 -389.5q0 -156 65.5 -281t183.5 -195.5t265 -70.5q153 0 275 77
t174 210h225q-69 -223 -251 -354.5t-423 -131.5z" />
    <glyph glyph-name="D" unicode="D" horiz-adv-x="1501" 
d="M147 0v180h132v1073h-132v181h535q225 0 390 -92.5t249 -253.5t84 -371q0 -335 -190.5 -526t-532.5 -191h-535zM487 188h195q238 0 373 139.5t135 389.5q0 244 -134 385t-374 141h-195v-1055z" />
    <glyph glyph-name="E" unicode="E" horiz-adv-x="1150" 
d="M188 0v1434h844v-193h-635v-416h547v-190h-547v-442h656v-193h-865z" />
    <glyph glyph-name="F" unicode="F" horiz-adv-x="1128" 
d="M188 0v1434h844v-193h-635v-438h592v-191h-592v-612h-209z" />
    <glyph glyph-name="G" unicode="G" horiz-adv-x="1642" 
d="M829 -29q-208 1 -376 98.5t-262.5 268t-94.5 379.5q0 155 55.5 292.5t151.5 236.5t232 156.5t292 57.5q241 0 423 -131.5t253 -351.5h-227q-54 131 -175 208t-274 77q-223 0 -368.5 -155.5t-145.5 -389.5q0 -236 147 -391.5t371 -155.5q80 0 153 19.5t137.5 59t113 107
t72.5 156.5h-420v180h659q-14 -153 -62 -277t-117.5 -205.5t-159 -136.5t-183.5 -78.5t-195 -23.5z" />
    <glyph glyph-name="H" unicode="H" horiz-adv-x="1488" 
d="M188 0v1434h209v-609h697v609h206v-1434h-206v633h-697v-633h-209z" />
    <glyph glyph-name="I" unicode="I" horiz-adv-x="960" 
d="M168 0v186h209v1061h-209v187h625v-187h-209v-1061h209v-186h-625z" />
    <glyph glyph-name="J" unicode="J" horiz-adv-x="1110" 
d="M487 -25q-88 0 -165 26t-138.5 75.5t-97 131.5t-35.5 185h209q0 -106 61 -164.5t173 -58.5q64 0 111 23t72.5 63t37.5 86.5t12 101.5v799h-418v191h627v-985q0 -95 -24.5 -177t-75.5 -150t-140.5 -107.5t-208.5 -39.5z" />
    <glyph glyph-name="K" unicode="K" horiz-adv-x="1292" 
d="M188 0v1434h209v-596h181l399 596h250l-475 -689l499 -745h-256l-417 645h-181v-645h-209z" />
    <glyph glyph-name="L" unicode="L" horiz-adv-x="1091" 
d="M188 0v1434h209v-1244h602v-190h-811z" />
    <glyph glyph-name="M" unicode="M" horiz-adv-x="1808" 
d="M188 0v1434h361l348 -1235h14l349 1235h360v-1434h-201v1235h-16l-348 -1235h-299l-350 1235h-15v-1235h-203z" />
    <glyph glyph-name="N" unicode="N" horiz-adv-x="1497" 
d="M188 0v1434h349l553 -1235h14v1235h205v-1434h-353l-544 1235h-15v-1235h-209z" />
    <glyph glyph-name="O" unicode="O" horiz-adv-x="1665" 
d="M831 -27q-207 0 -375.5 97t-264 267.5t-95.5 379.5q0 156 56.5 294t154.5 236.5t235 155.5t292 57q207 0 375.5 -98t264 -268.5t95.5 -376.5q0 -155 -56.5 -293t-154.5 -237t-235 -156.5t-292 -57.5zM834 172q222 0 371 155t149 390q0 153 -68 278t-187 196t-265 71
q-223 0 -372 -156t-149 -389q0 -235 149 -390t372 -155z" />
    <glyph glyph-name="P" unicode="P" horiz-adv-x="1206" 
d="M188 0v1434h484q202 0 327 -121t125 -320q0 -196 -127.5 -320t-324.5 -124h-275v-549h-209zM397 737h262q114 0 183 72.5t69 183.5q0 110 -69 180t-183 70h-262v-506z" />
    <glyph glyph-name="Q" unicode="Q" horiz-adv-x="1665" 
d="M1098 -166l-66 166q-106 -27 -201 -27q-207 0 -375.5 97t-264 267.5t-95.5 379.5q0 156 56.5 294t154.5 236.5t235 155.5t292 57q207 0 375.5 -98t264 -268.5t95.5 -376.5q0 -209 -97.5 -379.5t-265.5 -265.5l94 -238h-202zM834 172q75 0 124 12l-147 373h203l116 -295
q104 74 164 192.5t60 262.5q0 153 -68 278t-187 196t-265 71q-223 0 -372 -156t-149 -389q0 -235 149 -390t372 -155z" />
    <glyph glyph-name="R" unicode="R" horiz-adv-x="1257" 
d="M188 0v1434h467q220 0 350 -117.5t130 -310.5q0 -159 -83 -271.5t-237 -150.5l371 -584h-250l-334 561h-205v-561h-209zM397 748h258q118 0 191.5 67t73.5 189q0 105 -71 172t-204 67h-248v-495z" />
    <glyph glyph-name="S" unicode="S" horiz-adv-x="1214" 
d="M608 -27q-221 0 -371.5 132.5t-150.5 338.5h209q0 -120 88 -197t233 -77q129 0 209 58t80 155q0 64 -26.5 109.5t-71 71.5t-102.5 45t-122 34t-128 32t-122 46.5t-102.5 71t-71 111t-26.5 161.5q0 80 32 151t91 125.5t149 86.5t199 32q70 0 137.5 -15t130.5 -48.5
t110.5 -83t76 -123.5t28.5 -164h-210q0 112 -73 178t-202 66q-128 0 -194 -59.5t-66 -145.5q0 -51 21.5 -89.5t59 -61t87 -42t105 -31.5t114.5 -29.5t114.5 -36t105 -51.5t87 -75.5t59 -109t21.5 -150.5q0 -178 -137 -297t-371 -119z" />
    <glyph glyph-name="T" unicode="T" horiz-adv-x="1144" 
d="M469 0v1241h-408v193h1022v-193h-407v-1241h-207z" />
    <glyph glyph-name="U" unicode="U" horiz-adv-x="1435" 
d="M717 -27q-258 0 -400.5 149t-142.5 400v912h207v-910q0 -164 87 -259t249 -95q163 0 250.5 95t87.5 261v908h207v-910q0 -249 -145 -400t-400 -151z" />
    <glyph glyph-name="V" unicode="V" horiz-adv-x="1374" 
d="M535 0l-500 1434h223l412 -1235h16l420 1235h231l-512 -1434h-290z" />
    <glyph glyph-name="W" unicode="W" horiz-adv-x="1902" 
d="M362 0l-327 1434h223l260 -1235h17l253 1235h324l256 -1235h14l260 1235h224l-328 -1434h-328l-252 1235h-16l-250 -1235h-330z" />
    <glyph glyph-name="X" unicode="X" horiz-adv-x="1277" 
d="M20 0l484 739l-445 695h250l322 -525h16l324 525h248l-445 -695l483 -739h-247l-367 573h-14l-361 -573h-248z" />
    <glyph glyph-name="Y" unicode="Y" horiz-adv-x="1265" 
d="M528 0v629l-493 805h237l349 -603h14l348 603h246l-494 -805v-629h-207z" />
    <glyph glyph-name="Z" unicode="Z" horiz-adv-x="1296" 
d="M109 0v279l878 950v16h-854v189h1053v-281l-881 -950v-17h885v-186h-1081z" />
    <glyph glyph-name="bracketleft" unicode="[" horiz-adv-x="788" 
d="M184 -293v1856h369v-181h-166v-1495h166v-180h-369z" />
    <glyph glyph-name="backslash" unicode="\" horiz-adv-x="999" 
d="M717 -221l-625 1757h191l624 -1757h-190z" />
    <glyph glyph-name="bracketright" unicode="]" horiz-adv-x="788" 
d="M236 -293v180h165v1495h-165v181h368v-1856h-368z" />
    <glyph glyph-name="asciicircum" unicode="^" horiz-adv-x="1204" 
d="M137 643l352 791h230l346 -791h-199l-256 598h-18l-254 -598h-201z" />
    <glyph glyph-name="underscore" unicode="_" horiz-adv-x="1345" 
d="M117 -233v174h1112v-174h-1112z" />
    <glyph glyph-name="grave" unicode="`" horiz-adv-x="540" 
d="M285 1249l-183 281h211l125 -281h-153z" />
    <glyph glyph-name="a" unicode="a" horiz-adv-x="1363" 
d="M606 -27q-223 0 -368.5 159t-145.5 403q0 243 141 402t361 159q216 0 346 -181h16v154h203v-836q0 -49 53 -49h50v-184h-146q-68 0 -111.5 39.5t-43.5 107.5h-15q-17 -23 -29.5 -38.5t-44.5 -44t-65.5 -46t-87 -31.5t-113.5 -14zM631 160q148 0 240 107.5t92 264.5
q0 173 -96 274t-238 101q-143 0 -237.5 -106t-94.5 -269q0 -166 96 -269t238 -103z" />
    <glyph glyph-name="b" unicode="b" horiz-adv-x="1329" 
d="M721 -27q-59 0 -112.5 14.5t-86.5 32.5t-65.5 46.5t-44.5 43.5t-29 37h-16v-147h-199v1536h203v-621h16q124 181 348 181q219 0 360.5 -159.5t141.5 -401.5q0 -244 -147 -403t-369 -159zM694 160q144 0 240 103t96 269q0 163 -94.5 269t-237.5 106q-142 0 -236.5 -101
t-94.5 -274q0 -157 90 -264.5t237 -107.5z" />
    <glyph glyph-name="c" unicode="c" horiz-adv-x="1247" 
d="M643 -27q-160 0 -287 75t-195.5 203t-68.5 284q0 238 156 399.5t393 161.5q188 0 327.5 -103t182.5 -286l-195 -48q-22 112 -107 180t-202 68q-153 0 -249.5 -106.5t-96.5 -265.5q0 -161 98 -266t250 -105q118 0 202.5 66t106.5 178l197 -46q-43 -183 -183.5 -286
t-328.5 -103z" />
    <glyph glyph-name="d" unicode="d" horiz-adv-x="1306" 
d="M606 -27q-222 0 -368 159t-146 403q0 243 141 402t361 159q216 0 346 -181h16v621h203v-1536h-198v147h-15q-19 -25 -30 -37.5t-45 -43t-66.5 -47t-86 -31.5t-112.5 -15zM631 160q148 0 240 107.5t92 264.5q0 173 -96 274t-238 101q-143 0 -237.5 -106t-94.5 -269
q0 -166 96 -269t238 -103z" />
    <glyph glyph-name="e" unicode="e" horiz-adv-x="1226" 
d="M629 -27q-243 0 -390 155.5t-147 403.5q0 124 42 230.5t113.5 179t167.5 113.5t203 41q240 0 378.5 -153.5t138.5 -397.5v-64h-834q1 -156 89.5 -243.5t238.5 -87.5q104 0 186 54.5t109 151.5l190 -47q-49 -157 -179 -246.5t-306 -89.5zM303 635h625q-7 132 -95 207.5
t-215 75.5q-124 0 -214.5 -80.5t-100.5 -202.5z" />
    <glyph glyph-name="f" unicode="f" horiz-adv-x="835" 
d="M250 0v893h-195v176h195v154q0 160 88.5 236.5t245.5 76.5h161v-176h-159q-70 0 -101.5 -33.5t-31.5 -105.5v-152h301v-176h-301v-893h-203z" />
    <glyph glyph-name="g" unicode="g" horiz-adv-x="1316" 
d="M352 -471v176h471q70 0 101.5 33.5t31.5 105.5v310h-16q-18 -30 -43 -57t-66 -57.5t-102.5 -48.5t-134.5 -18q-220 0 -361 159.5t-141 404.5q0 242 146 400.5t368 158.5q59 0 112.5 -15t86 -31.5t66.5 -47t45 -43t30 -37.5h15v147h198v-1227q0 -160 -88.5 -236.5
t-245.5 -76.5h-473zM629 162q142 0 238 101t96 274q0 155 -92 262.5t-240 107.5q-141 0 -236.5 -102.5t-95.5 -267.5t93.5 -270t236.5 -105z" />
    <glyph glyph-name="h" unicode="h" horiz-adv-x="1241" 
d="M168 0v1536h203v-606h16q36 71 117.5 118.5t191.5 47.5q178 0 288 -117.5t110 -292.5v-686h-203v651q0 112 -73.5 183t-178.5 71q-111 0 -189.5 -75t-78.5 -187v-643h-203z" />
    <glyph glyph-name="i" unicode="i" horiz-adv-x="702" 
d="M403 1247q-58 0 -96.5 39t-38.5 98q0 56 38.5 95t96.5 39q59 0 98.5 -39t39.5 -95q0 -59 -39 -98t-99 -39zM301 0v893h-195v176h398v-1069h-203z" />
    <glyph glyph-name="j" unicode="j" horiz-adv-x="716" 
d="M426 1247q-58 0 -96.5 39t-38.5 98q0 56 38.5 95t96.5 39q59 0 98 -39t39 -95q0 -59 -38.5 -98t-98.5 -39zM14 -471v182h179q69 0 100 31.5t31 101.5v1049h-224v176h426v-1227q0 -160 -88 -236.5t-245 -76.5h-179z" />
    <glyph glyph-name="k" unicode="k" horiz-adv-x="1105" 
d="M168 0v1536h203v-864h155l283 397h238l-345 -473v-16l367 -580h-242l-295 487h-161v-487h-203z" />
    <glyph glyph-name="l" unicode="l" horiz-adv-x="813" 
d="M117 0v176h209v1182h-209v178h411v-1360h207v-176h-618z" />
    <glyph glyph-name="m" unicode="m" horiz-adv-x="1878" 
d="M168 0v1069h203v-137h16q39 71 113.5 117.5t179.5 46.5q112 0 193.5 -49.5t125.5 -135.5h17q101 185 325 185q173 0 281.5 -111.5t108.5 -282.5v-702h-203v635q0 130 -62.5 200t-167.5 70q-104 0 -174.5 -72.5t-70.5 -199.5v-633h-203v664q0 111 -66.5 176t-169.5 65
q-101 0 -172 -74.5t-71 -191.5v-639h-203z" />
    <glyph glyph-name="n" unicode="n" 
d="M168 0v1069h203v-139h16q36 72 116 119t191 47q177 0 284 -117t107 -293v-686h-202v651q0 112 -71.5 183t-174.5 71q-113 0 -189.5 -77.5t-76.5 -194.5v-633h-203z" />
    <glyph glyph-name="o" unicode="o" horiz-adv-x="1306" 
d="M651 -27q-242 0 -400.5 160t-158.5 402q0 119 42.5 223t116.5 178.5t178 117t224 42.5q243 0 402 -160.5t159 -400.5t-160 -401t-403 -161zM651 164q156 0 256.5 104.5t100.5 266.5q0 161 -100.5 266.5t-256.5 105.5q-154 0 -253 -106t-99 -266q0 -163 99 -267t253 -104z
" />
    <glyph glyph-name="p" unicode="p" horiz-adv-x="1329" 
d="M168 -471v1540h199v-147h16q17 22 29 37t44.5 43.5t65.5 46.5t86.5 32.5t112.5 14.5q222 0 369 -158.5t147 -400.5q0 -245 -141.5 -404.5t-360.5 -159.5q-59 0 -111.5 13t-89 31.5t-67.5 44.5t-49 47.5t-31 44.5h-16v-625h-203zM698 162q143 0 236.5 105t93.5 270
q0 166 -95 268t-239 102q-147 0 -237 -107t-90 -263q0 -173 94.5 -274t236.5 -101z" />
    <glyph glyph-name="q" unicode="q" horiz-adv-x="1316" 
d="M956 -471v625h-16q-18 -30 -43 -57t-66 -57.5t-102.5 -48.5t-134.5 -18q-220 0 -361 159.5t-141 404.5q0 242 146 400.5t368 158.5q59 0 112.5 -15t86 -31.5t66.5 -47t45 -43t30 -37.5h15v147h198v-1540h-203zM629 162q142 0 238 101t96 274q0 155 -92 262.5t-240 107.5
q-141 0 -236.5 -102.5t-95.5 -267.5t93.5 -270t236.5 -105z" />
    <glyph glyph-name="r" unicode="r" horiz-adv-x="821" 
d="M168 0v1069h201v-168h14q31 76 108.5 135.5t178.5 59.5h75v-203h-102q-134 0 -203 -93t-69 -251v-549h-203z" />
    <glyph glyph-name="s" unicode="s" horiz-adv-x="1062" 
d="M526 -27q-178 0 -291 86.5t-133 241.5l189 43q13 -94 76.5 -142t167.5 -48q101 0 155.5 40t54.5 109q0 46 -26 77.5t-69 46.5t-97.5 29t-111.5 24t-111.5 32t-97.5 52.5t-69 86.5t-26 133q0 137 108.5 224.5t282.5 87.5q152 0 263 -78.5t135 -218.5l-178 -51
q-13 80 -73.5 123.5t-152.5 43.5q-87 0 -138.5 -37t-51.5 -96q0 -41 26.5 -69t70 -40.5t99 -24.5t113.5 -21t113.5 -31.5t99 -53t70 -88t26.5 -135.5q0 -156 -116 -251t-308 -95z" />
    <glyph glyph-name="t" unicode="t" horiz-adv-x="890" 
d="M604 0q-157 0 -245.5 76.5t-88.5 236.5v580h-194v176h207v305h190v-305h315v-176h-315v-578q0 -72 31.5 -104.5t101.5 -32.5h170v-178h-172z" />
    <glyph glyph-name="u" unicode="u" 
d="M549 -27q-177 0 -284 117t-107 293v686h202v-651q0 -112 71 -182t175 -70q113 0 189.5 77t76.5 193v633h203v-1069h-203v139h-16q-36 -72 -116 -119t-191 -47z" />
    <glyph glyph-name="v" unicode="v" horiz-adv-x="1126" 
d="M428 0l-383 1069h215l293 -879h16l291 879h221l-381 -1069h-272z" />
    <glyph glyph-name="w" unicode="w" horiz-adv-x="1738" 
d="M352 0l-307 1069h219l225 -879h15l233 879h264l232 -879h14l228 879h217l-308 -1069h-278l-232 877h-12l-229 -877h-281z" />
    <glyph glyph-name="x" unicode="x" horiz-adv-x="1075" 
d="M35 0l368 557l-340 512h232l233 -379h17l235 379h232l-340 -520l368 -549h-235l-260 412h-21l-258 -412h-231z" />
    <glyph glyph-name="y" unicode="y" horiz-adv-x="1134" 
d="M113 -471v184h137q63 0 99.5 27t60.5 86l67 174h-51l-381 1069h221l281 -874h16l303 874h224l-510 -1333q-80 -207 -332 -207h-135z" />
    <glyph glyph-name="z" unicode="z" horiz-adv-x="1050" 
d="M113 0v256l624 623v14h-608v176h801v-258l-627 -621v-14h637v-176h-827z" />
    <glyph glyph-name="braceleft" unicode="{" horiz-adv-x="929" 
d="M649 -293q-150 0 -235.5 79.5t-85.5 236.5v454q0 27 -18.5 44.5t-49.5 17.5h-76v188h76q32 0 50 20.5t18 53.5v446q0 157 85.5 236.5t235.5 79.5h45v-185h-30q-73 0 -103.5 -33.5t-30.5 -99.5v-444q0 -141 -102 -162v-14q102 -21 102 -162v-438q0 -67 30.5 -100.5
t103.5 -33.5h30v-184h-45z" />
    <glyph glyph-name="bar" unicode="|" horiz-adv-x="643" 
d="M225 -422v2026h195v-2026h-195z" />
    <glyph glyph-name="braceright" unicode="}" horiz-adv-x="929" 
d="M236 -293v184h30q73 0 103 33.5t30 100.5v438q0 141 103 162v14q-103 21 -103 162v444q0 67 -30 100t-103 33h-30v185h45q150 0 235.5 -79.5t85.5 -236.5v-446q0 -33 18 -53.5t50 -20.5h75v-188h-75q-31 0 -49.5 -17.5t-18.5 -44.5v-454q0 -157 -85.5 -236.5
t-235.5 -79.5h-45z" />
    <glyph glyph-name="asciitilde" unicode="~" horiz-adv-x="1202" 
d="M793 463q-52 0 -105 20.5t-90 45t-85.5 45t-92.5 20.5q-55 0 -84.5 -35.5t-32.5 -93.5h-166q0 138 73.5 225.5t199.5 87.5q54 0 111 -21t96.5 -45.5t85 -45.5t79.5 -21q55 0 84 35.5t31 95.5h166q0 -134 -71.5 -223.5t-198.5 -89.5z" />
    <glyph glyph-name="exclamdown" unicode="&#xa1;" horiz-adv-x="647" 
d="M324 883q-56 0 -96 38.5t-40 92.5q0 55 40 94t96 39t94.5 -38.5t38.5 -94.5q0 -54 -39 -92.5t-94 -38.5zM219 -313l19 1044h174l16 -1044h-209z" />
    <glyph glyph-name="cent" unicode="&#xa2;" horiz-adv-x="1247" 
d="M571 0v150q-215 25 -347 181t-132 376t133.5 376t345.5 181v170h164v-174q155 -24 267 -123t149 -258l-195 -45q-22 112 -106.5 178.5t-202.5 66.5q-153 0 -249.5 -106t-96.5 -266q0 -161 98 -266t250 -105q118 0 202.5 67t106.5 179l197 -47q-37 -159 -150.5 -259
t-269.5 -124v-152h-164z" />
    <glyph glyph-name="sterling" unicode="&#xa3;" horiz-adv-x="1271" 
d="M143 0v184h133v437h-114v174h114v245q0 185 122 302.5t309 117.5q97 0 176.5 -33t128 -87t76 -116t30.5 -126h-200q-5 67 -63 118.5t-146 51.5q-102 0 -166 -65t-64 -171v-237h334v-174h-334v-437h635v-184h-971z" />
    <glyph glyph-name="yen" unicode="&#xa5;" horiz-adv-x="1265" 
d="M528 0v311h-309v154h309v162h-309v153h217l-401 654h237l349 -603h14l348 603h246l-402 -654h217v-153h-309v-162h309v-154h-309v-311h-207z" />
    <glyph glyph-name="section" unicode="&#xa7;" horiz-adv-x="1091" 
d="M532 -436q-174 0 -291.5 103.5t-117.5 273.5h194q0 -87 59.5 -141t155.5 -54q81 0 141.5 47.5t61.5 124.5q0 94 -108 174l-342 213q-158 109 -158 275q0 91 44.5 159t129.5 105v14q-143 120 -143 287q0 159 111 257.5t290 98.5q173 0 291.5 -104t118.5 -273h-201
q-5 84 -60 138.5t-149 54.5q-89 0 -145 -47t-56 -127q0 -93 107 -172l285 -174q107 -65 162 -140.5t55 -173.5q0 -89 -46.5 -156.5t-127.5 -107.5v-14q141 -119 141 -287q0 -159 -111.5 -256.5t-290.5 -97.5zM625 313q67 4 110 50t43 110q0 101 -133 176l-178 101
q-66 -4 -109 -50.5t-43 -109.5q0 -97 103 -158z" />
    <glyph glyph-name="dieresis" unicode="&#xa8;" horiz-adv-x="802" 
d="M211 1262q-52 0 -87.5 34.5t-35.5 87.5q0 52 36 87.5t87 35.5q56 0 90.5 -35t34.5 -88q0 -54 -34 -88t-91 -34zM590 1262q-55 0 -90 34t-35 88q0 53 35 88t90 35q53 0 89 -35.5t36 -87.5q0 -53 -36 -87.5t-89 -34.5z" />
    <glyph glyph-name="copyright" unicode="&#xa9;" horiz-adv-x="1671" 
d="M834 -29q-210 0 -379.5 98.5t-264 268t-94.5 375.5q0 153 56 291t152.5 238t233.5 159t291 59q160 0 299.5 -58.5t237 -158.5t153.5 -238t56 -292q0 -206 -94 -375.5t-264 -268t-383 -98.5zM834 106q172 0 307 80t208.5 218.5t73.5 310.5q0 170 -74 308t-210.5 218
t-309.5 80q-167 0 -300.5 -80t-207 -218.5t-73.5 -309.5q0 -170 74 -308.5t208.5 -218.5t303.5 -80zM840 313q-170 0 -279.5 115.5t-109.5 284.5t110 284t279 115q132 0 227.5 -73t126.5 -197l-131 -33q-22 78 -79 122t-142 44q-112 0 -177 -74.5t-65 -187.5q0 -116 66 -189
t178 -73q174 0 223 159l129 -26q-31 -130 -127 -200.5t-229 -70.5z" />
    <glyph glyph-name="ordfeminine" unicode="&#xaa;" horiz-adv-x="1107" 
d="M492 614q-168 0 -277 119t-109 303q0 185 106.5 304.5t272.5 119.5q52 0 97.5 -14t77 -36.5t51.5 -42t34 -40.5h17v113h158v-621q0 -47 41 -47h38v-137h-116q-51 0 -83.5 32t-35.5 83h-16q-27 -50 -90 -93t-166 -43zM516 762q113 0 180.5 77.5t67.5 194.5
q0 130 -71.5 204.5t-178.5 74.5q-108 0 -177 -77t-69 -202q0 -124 70.5 -198t177.5 -74z" />
    <glyph glyph-name="guillemotleft" unicode="&#xab;" horiz-adv-x="1024" 
d="M371 213l-244 338v88l244 340h198l-260 -377v-16l260 -373h-198zM698 213l-243 338v88l243 340h199l-260 -377v-16l260 -373h-199z" />
    <glyph glyph-name="registered" unicode="&#xae;" horiz-adv-x="1050" 
d="M526 676q-195 0 -314.5 121.5t-119.5 304.5q0 182 119.5 305t310.5 123q197 0 316.5 -121.5t119.5 -304.5q0 -180 -119 -304t-313 -124zM526 772q152 0 240 92t88 240q0 147 -89 237.5t-243 90.5q-148 0 -235.5 -92.5t-87.5 -237.5q0 -143 88.5 -236.5t238.5 -93.5z
M373 881v442h180q71 0 113.5 -42.5t42.5 -102.5q0 -44 -20.5 -79t-49.5 -48l84 -170h-107l-65 147h-78v-147h-100zM473 1116h72q29 0 44 17.5t15 42.5q0 26 -15.5 42.5t-43.5 16.5h-72v-119z" />
    <glyph glyph-name="macron" unicode="&#xaf;" horiz-adv-x="727" 
d="M102 1284v166h523v-166h-523z" />
    <glyph glyph-name="degree" unicode="&#xb0;" horiz-adv-x="833" 
d="M416 860q-134 0 -218.5 86t-84.5 213q0 125 86 213t217 88q132 0 218.5 -87.5t86.5 -211.5q0 -128 -85.5 -214.5t-219.5 -86.5zM416 1008q68 0 108.5 43.5t40.5 109.5q0 65 -41 108.5t-108 43.5q-65 0 -106.5 -44.5t-41.5 -109.5q0 -64 41 -107.5t107 -43.5z" />
    <glyph glyph-name="uni00B2" unicode="&#xb2;" horiz-adv-x="763" 
d="M123 623v178l299 274q68 61 70 131q0 44 -33 76.5t-88 32.5q-53 0 -86 -34t-33 -85h-135q0 101 69 177.5t189 76.5q118 0 190 -70.5t72 -169.5q0 -115 -111 -215l-262 -231v-12h383v-129h-524z" />
    <glyph glyph-name="uni00B3" unicode="&#xb3;" horiz-adv-x="780" 
d="M381 606q-119 0 -191.5 75t-72.5 177h137q0 -55 36.5 -87t96.5 -32q55 0 93 34t38 91q0 54 -38 88.5t-99 34.5h-109v182l224 121v17h-346v127h487v-201l-225 -117v-16h10q106 0 174 -70.5t68 -165.5q0 -113 -79 -185.5t-204 -72.5z" />
    <glyph glyph-name="acute" unicode="&#xb4;" horiz-adv-x="540" 
d="M102 1249l123 281h213l-182 -281h-154z" />
    <glyph glyph-name="paragraph" unicode="&#xb6;" horiz-adv-x="1216" 
d="M500 -92v756q-157 4 -265 116.5t-108 268.5q0 160 113.5 272.5t275.5 112.5h567v-181h-131v-1345h-168v1345h-118v-1345h-166z" />
    <glyph glyph-name="periodcentered" unicode="&#xb7;" horiz-adv-x="565" 
d="M283 510q-56 0 -96 39t-40 94t40 93t96 38t94.5 -38t38.5 -93t-39 -94t-94 -39z" />
    <glyph glyph-name="cedilla" unicode="&#xb8;" horiz-adv-x="421" 
d="M102 -391l62 391h155l-34 -391h-183z" />
    <glyph glyph-name="uni00B9" unicode="&#xb9;" horiz-adv-x="718" 
d="M147 623v133h164v536h-16l-178 -98v145l172 95h166v-678h147v-133h-455z" />
    <glyph glyph-name="ordmasculine" unicode="&#xba;" horiz-adv-x="1058" 
d="M528 614q-184 0 -304 119.5t-120 300.5q0 183 121 304.5t305 121.5q182 0 301 -121t119 -303q0 -181 -120 -301.5t-302 -120.5zM528 760q115 0 189 78.5t74 197.5t-74 198t-189 79q-116 0 -189 -79.5t-73 -199.5q0 -119 73 -196.5t189 -77.5z" />
    <glyph glyph-name="guillemotright" unicode="&#xbb;" horiz-adv-x="1024" 
d="M127 213l262 373v16l-262 377h199l243 -340v-88l-243 -338h-199zM455 213l262 373v16l-262 377h198l244 -340v-88l-244 -338h-198z" />
    <glyph glyph-name="onequarter" unicode="&#xbc;" horiz-adv-x="1742" 
d="M420 -84l803 1602h161l-800 -1602h-164zM147 623v133h164v536h-16l-178 -98v145l172 95h166v-678h147v-133h-455zM1382 0v178h-387v154l320 479h211v-502h100v-131h-100v-178h-144zM1135 309h247v361h-12l-235 -348v-13z" />
    <glyph glyph-name="onehalf" unicode="&#xbd;" horiz-adv-x="1792" 
d="M420 -84l803 1602h161l-800 -1602h-164zM147 623v133h164v536h-16l-178 -98v145l172 95h166v-678h147v-133h-455zM1151 0v178l299 275q68 61 70 131q0 44 -33 76t-88 32q-53 0 -86 -34t-33 -85h-135q0 101 69 177.5t189 76.5q118 0 190 -70t72 -169q0 -115 -111 -215
l-262 -232v-12h383v-129h-524z" />
    <glyph glyph-name="threequarters" unicode="&#xbe;" horiz-adv-x="1742" 
d="M420 -84l803 1602h161l-800 -1602h-164zM381 606q-119 0 -191.5 75t-72.5 177h137q0 -55 36.5 -87t96.5 -32q55 0 93 34t38 91q0 54 -38 88.5t-99 34.5h-109v182l224 121v17h-346v127h487v-201l-225 -117v-16h10q106 0 174 -70.5t68 -165.5q0 -113 -79 -185.5t-204 -72.5
zM1382 0v178h-387v154l320 479h211v-502h100v-131h-100v-178h-144zM1135 309h247v361h-12l-235 -348v-13z" />
    <glyph glyph-name="questiondown" unicode="&#xbf;" horiz-adv-x="1103" 
d="M582 883q-55 0 -93 38.5t-38 94.5q0 54 38 92.5t93 38.5q56 0 95.5 -38.5t39.5 -92.5q0 -55 -39.5 -94t-95.5 -39zM553 -340q-190 0 -305 110.5t-115 276.5q0 115 47 191.5t133 132.5l109 69q35 24 50 47t15 66v178h197v-178q0 -91 -30.5 -142.5t-98.5 -97.5l-100 -69
q-61 -42 -89 -85t-28 -106q0 -90 58 -148.5t157 -58.5q104 0 165.5 65t61.5 165h191q0 -82 -26.5 -155.5t-76.5 -132t-131.5 -93.5t-183.5 -35z" />
    <glyph glyph-name="Agrave" unicode="&#xc0;" horiz-adv-x="1388" 
d="M639 1614l-182 280h211l125 -280h-154zM33 0l518 1434h293l512 -1434h-219l-115 324h-660l-114 -324h-215zM430 514h524l-254 721h-16z" />
    <glyph glyph-name="Aacute" unicode="&#xc1;" horiz-adv-x="1388" 
d="M571 1614l123 280h213l-182 -280h-154zM33 0l518 1434h293l512 -1434h-219l-115 324h-660l-114 -324h-215zM430 514h524l-254 721h-16z" />
    <glyph glyph-name="Acircumflex" unicode="&#xc2;" horiz-adv-x="1388" 
d="M403 1614l199 272h199l198 -272h-174l-116 127h-15l-114 -127h-177zM33 0l518 1434h293l512 -1434h-219l-115 324h-660l-114 -324h-215zM430 514h524l-254 721h-16z" />
    <glyph glyph-name="Atilde" unicode="&#xc3;" horiz-adv-x="1388" 
d="M819 1608q-49 0 -97.5 25.5t-90.5 51t-74 25.5q-34 0 -55 -25.5t-21 -74.5h-141q0 125 59 191.5t150 66.5q39 0 79.5 -16t68 -34.5t58.5 -34.5t54 -16q33 0 54.5 26.5t21.5 74.5h139q0 -124 -57.5 -192t-147.5 -68zM33 0l518 1434h293l512 -1434h-219l-115 324h-660
l-114 -324h-215zM430 514h524l-254 721h-16z" />
    <glyph glyph-name="Adieresis" unicode="&#xc4;" horiz-adv-x="1388" 
d="M514 1626q-52 0 -87.5 35t-35.5 88q0 52 36 87.5t87 35.5q56 0 90.5 -35t34.5 -88q0 -55 -34.5 -89t-90.5 -34zM893 1626q-55 0 -90 34.5t-35 88.5q0 53 35 88t90 35q53 0 89 -35.5t36 -87.5q0 -53 -36 -88t-89 -35zM33 0l518 1434h293l512 -1434h-219l-115 324h-660
l-114 -324h-215zM430 514h524l-254 721h-16z" />
    <glyph glyph-name="Aring" unicode="&#xc5;" horiz-adv-x="1388" 
d="M696 1552q-86 0 -142 55t-56 138q0 84 55.5 137t140.5 53q89 0 145 -52.5t56 -135.5q0 -85 -56.5 -140t-142.5 -55zM696 1661q38 0 60 23.5t22 62.5q0 36 -22.5 59t-61.5 23q-35 0 -57.5 -23.5t-22.5 -60.5t22.5 -60.5t59.5 -23.5zM33 0l518 1434h293l512 -1434h-219
l-115 324h-660l-114 -324h-215zM430 514h524l-254 721h-16z" />
    <glyph glyph-name="AE" unicode="&#xc6;" horiz-adv-x="1878" 
d="M33 0l764 1434h962v-193h-635v-416h547v-190h-547v-442h656v-193h-865v324h-487l-170 -324h-225zM516 514h399v727h-16z" />
    <glyph glyph-name="Ccedilla" unicode="&#xc7;" horiz-adv-x="1589" 
d="M827 170q153 0 275 77t174 210h225q-63 -204 -221.5 -332t-372.5 -150l-33 -366h-182l58 366q-287 28 -470.5 236t-183.5 506q0 155 55.5 292.5t151.5 236.5t232 156.5t292 57.5q241 0 422 -131.5t252 -351.5h-225q-54 131 -175 208t-274 77q-223 0 -368.5 -155.5
t-145.5 -389.5q0 -156 65.5 -281t183.5 -195.5t265 -70.5z" />
    <glyph glyph-name="Egrave" unicode="&#xc8;" horiz-adv-x="1150" 
d="M573 1614l-182 280h211l125 -280h-154zM188 0v1434h844v-193h-635v-416h547v-190h-547v-442h656v-193h-865z" />
    <glyph glyph-name="Eacute" unicode="&#xc9;" horiz-adv-x="1150" 
d="M506 1614l123 280h213l-183 -280h-153zM188 0v1434h844v-193h-635v-416h547v-190h-547v-442h656v-193h-865z" />
    <glyph glyph-name="Ecircumflex" unicode="&#xca;" horiz-adv-x="1150" 
d="M338 1614l199 272h198l199 -272h-174l-117 127h-14l-115 -127h-176zM188 0v1434h844v-193h-635v-416h547v-190h-547v-442h656v-193h-865z" />
    <glyph glyph-name="Edieresis" unicode="&#xcb;" horiz-adv-x="1150" 
d="M449 1626q-52 0 -87.5 35t-35.5 88q0 52 36 87.5t87 35.5q56 0 90 -35t34 -88q0 -55 -34 -89t-90 -34zM827 1626q-55 0 -90 34.5t-35 88.5q0 53 35 88t90 35q53 0 89 -35.5t36 -87.5q0 -53 -36 -88t-89 -35zM188 0v1434h844v-193h-635v-416h547v-190h-547v-442h656v-193
h-865z" />
    <glyph glyph-name="Igrave" unicode="&#xcc;" horiz-adv-x="960" 
d="M432 1614l-182 280h211l125 -280h-154zM168 0v186h209v1061h-209v187h625v-187h-209v-1061h209v-186h-625z" />
    <glyph glyph-name="Iacute" unicode="&#xcd;" horiz-adv-x="960" 
d="M365 1614l122 280h213l-182 -280h-153zM168 0v186h209v1061h-209v187h625v-187h-209v-1061h209v-186h-625z" />
    <glyph glyph-name="Icircumflex" unicode="&#xce;" horiz-adv-x="960" 
d="M197 1614l198 272h199l199 -272h-175l-116 127h-15l-114 -127h-176zM168 0v186h209v1061h-209v187h625v-187h-209v-1061h209v-186h-625z" />
    <glyph glyph-name="Idieresis" unicode="&#xcf;" horiz-adv-x="960" 
d="M307 1626q-52 0 -87.5 35t-35.5 88q0 52 36 87.5t87 35.5q56 0 90.5 -35t34.5 -88q0 -55 -34 -89t-91 -34zM686 1626q-55 0 -90 34.5t-35 88.5q0 53 35 88t90 35q53 0 89 -35.5t36 -87.5q0 -53 -36 -88t-89 -35zM168 0v186h209v1061h-209v187h625v-187h-209v-1061h209
v-186h-625z" />
    <glyph glyph-name="Eth" unicode="&#xd0;" horiz-adv-x="1501" 
d="M147 0v180h132v451h-115v188h115v434h-132v181h541q224 0 387.5 -92.5t246.5 -253.5t83 -371q0 -335 -188.5 -526t-528.5 -191h-541zM487 188h201q238 0 370 139t132 390q0 244 -132.5 385t-369.5 141h-201v-424h291v-188h-291v-443z" />
    <glyph glyph-name="Ntilde" unicode="&#xd1;" horiz-adv-x="1497" 
d="M907 1608q-49 0 -97.5 25.5t-90.5 51t-74 25.5q-34 0 -55 -25.5t-21 -74.5h-141q0 125 59 191.5t150 66.5q39 0 79.5 -16t68 -34.5t58.5 -34.5t54 -16q33 0 54.5 26.5t21.5 74.5h139q0 -124 -57.5 -192t-147.5 -68zM188 0v1434h349l553 -1235h14v1235h205v-1434h-353
l-544 1235h-15v-1235h-209z" />
    <glyph glyph-name="Ograve" unicode="&#xd2;" horiz-adv-x="1665" 
d="M776 1614l-182 280h211l125 -280h-154zM831 -27q-207 0 -375.5 97t-264 267.5t-95.5 379.5q0 156 56.5 294t154.5 236.5t235 155.5t292 57q207 0 375.5 -98t264 -268.5t95.5 -376.5q0 -155 -56.5 -293t-154.5 -237t-235 -156.5t-292 -57.5zM834 172q222 0 371 155
t149 390q0 153 -68 278t-187 196t-265 71q-223 0 -372 -156t-149 -389q0 -235 149 -390t372 -155z" />
    <glyph glyph-name="Oacute" unicode="&#xd3;" horiz-adv-x="1665" 
d="M709 1614l122 280h213l-182 -280h-153zM831 -27q-207 0 -375.5 97t-264 267.5t-95.5 379.5q0 156 56.5 294t154.5 236.5t235 155.5t292 57q207 0 375.5 -98t264 -268.5t95.5 -376.5q0 -155 -56.5 -293t-154.5 -237t-235 -156.5t-292 -57.5zM834 172q222 0 371 155
t149 390q0 153 -68 278t-187 196t-265 71q-223 0 -372 -156t-149 -389q0 -235 149 -390t372 -155z" />
    <glyph glyph-name="Ocircumflex" unicode="&#xd4;" horiz-adv-x="1665" 
d="M541 1614l198 272h199l199 -272h-174l-117 127h-15l-114 -127h-176zM831 -27q-207 0 -375.5 97t-264 267.5t-95.5 379.5q0 156 56.5 294t154.5 236.5t235 155.5t292 57q207 0 375.5 -98t264 -268.5t95.5 -376.5q0 -155 -56.5 -293t-154.5 -237t-235 -156.5t-292 -57.5z
M834 172q222 0 371 155t149 390q0 153 -68 278t-187 196t-265 71q-223 0 -372 -156t-149 -389q0 -235 149 -390t372 -155z" />
    <glyph glyph-name="Otilde" unicode="&#xd5;" horiz-adv-x="1665" 
d="M956 1608q-49 0 -97.5 25.5t-90.5 51t-74 25.5q-34 0 -55 -25.5t-21 -74.5h-141q0 125 59 191.5t150 66.5q39 0 79.5 -16t68 -34.5t58.5 -34.5t54 -16q33 0 54.5 26.5t21.5 74.5h139q0 -124 -57.5 -192t-147.5 -68zM831 -27q-207 0 -375.5 97t-264 267.5t-95.5 379.5
q0 156 56.5 294t154.5 236.5t235 155.5t292 57q207 0 375.5 -98t264 -268.5t95.5 -376.5q0 -155 -56.5 -293t-154.5 -237t-235 -156.5t-292 -57.5zM834 172q222 0 371 155t149 390q0 153 -68 278t-187 196t-265 71q-223 0 -372 -156t-149 -389q0 -235 149 -390t372 -155z
" />
    <glyph glyph-name="Odieresis" unicode="&#xd6;" horiz-adv-x="1665" 
d="M651 1626q-52 0 -87.5 35t-35.5 88q0 52 36 87.5t87 35.5q56 0 90.5 -35t34.5 -88q0 -55 -34 -89t-91 -34zM1030 1626q-55 0 -90 34.5t-35 88.5q0 53 35 88t90 35q53 0 89 -35.5t36 -87.5q0 -53 -36 -88t-89 -35zM831 -27q-207 0 -375.5 97t-264 267.5t-95.5 379.5
q0 156 56.5 294t154.5 236.5t235 155.5t292 57q207 0 375.5 -98t264 -268.5t95.5 -376.5q0 -155 -56.5 -293t-154.5 -237t-235 -156.5t-292 -57.5zM834 172q222 0 371 155t149 390q0 153 -68 278t-187 196t-265 71q-223 0 -372 -156t-149 -389q0 -235 149 -390t372 -155z
" />
    <glyph glyph-name="multiply" unicode="&#xd7;" horiz-adv-x="944" 
d="M809 145l-338 363l-336 -361l-125 123l338 361l-336 364l123 125l338 -360l338 360l121 -125l-340 -362l342 -367z" />
    <glyph glyph-name="Oslash" unicode="&#xd8;" horiz-adv-x="1665" 
d="M1372 1231q94 -101 145.5 -233.5t51.5 -280.5q0 -155 -56.5 -293t-154.5 -237t-235 -156.5t-292 -57.5q-205 0 -376 99l-111 -140l-147 129l104 132q-98 101 -151.5 235t-53.5 289q0 156 56.5 294t154.5 236.5t235 155.5t292 57q214 0 387 -106l102 129l147 -129z
M313 717q0 -209 119 -357l662 834q-120 68 -260 68q-223 0 -372 -156t-149 -389zM834 172q222 0 371 155t149 390q0 202 -113 346l-657 -830q116 -61 250 -61z" />
    <glyph glyph-name="Ugrave" unicode="&#xd9;" horiz-adv-x="1435" 
d="M662 1614l-183 280h211l125 -280h-153zM717 -27q-258 0 -400.5 149t-142.5 400v912h207v-910q0 -164 87 -259t249 -95q163 0 250.5 95t87.5 261v908h207v-910q0 -249 -145 -400t-400 -151z" />
    <glyph glyph-name="Uacute" unicode="&#xda;" horiz-adv-x="1435" 
d="M594 1614l123 280h213l-182 -280h-154zM717 -27q-258 0 -400.5 149t-142.5 400v912h207v-910q0 -164 87 -259t249 -95q163 0 250.5 95t87.5 261v908h207v-910q0 -249 -145 -400t-400 -151z" />
    <glyph glyph-name="Ucircumflex" unicode="&#xdb;" horiz-adv-x="1435" 
d="M426 1614l199 272h198l199 -272h-174l-117 127h-14l-115 -127h-176zM717 -27q-258 0 -400.5 149t-142.5 400v912h207v-910q0 -164 87 -259t249 -95q163 0 250.5 95t87.5 261v908h207v-910q0 -249 -145 -400t-400 -151z" />
    <glyph glyph-name="Udieresis" unicode="&#xdc;" horiz-adv-x="1435" 
d="M537 1626q-52 0 -87.5 35t-35.5 88q0 52 36 87.5t87 35.5q56 0 90.5 -35t34.5 -88q0 -55 -34 -89t-91 -34zM915 1626q-55 0 -89.5 34.5t-34.5 88.5q0 53 34.5 88t89.5 35q53 0 89 -35.5t36 -87.5q0 -53 -36 -88t-89 -35zM717 -27q-258 0 -400.5 149t-142.5 400v912h207
v-910q0 -164 87 -259t249 -95q163 0 250.5 95t87.5 261v908h207v-910q0 -249 -145 -400t-400 -151z" />
    <glyph glyph-name="Yacute" unicode="&#xdd;" horiz-adv-x="1265" 
d="M520 1614l123 280h213l-182 -280h-154zM528 0v629l-493 805h237l349 -603h14l348 603h246l-494 -805v-629h-207z" />
    <glyph glyph-name="Thorn" unicode="&#xde;" horiz-adv-x="1206" 
d="M188 0v1434h209v-269h277q202 0 326 -120.5t124 -319.5q0 -196 -127.5 -320t-322.5 -124h-277v-281h-209zM397 469h262q114 0 183 72t69 184q0 110 -69 181t-183 71h-262v-508z" />
    <glyph glyph-name="germandbls" unicode="&#xdf;" horiz-adv-x="1257" 
d="M168 0v1217q0 161 88.5 240t245.5 79h567v-262l-354 -348v-17q66 0 130 -18t122 -55t102 -89t70 -125.5t26 -158.5q0 -142 -68.5 -249t-182 -160.5t-255.5 -53.5h-143v178h129q140 0 226.5 73t86.5 212q0 138 -86.5 208t-226.5 70h-129v222l361 374v17h-373
q-70 0 -101.5 -33.5t-31.5 -106.5v-1214h-203z" />
    <glyph glyph-name="agrave" unicode="&#xe0;" horiz-adv-x="1363" 
d="M598 1249l-182 281h211l125 -281h-154zM606 -27q-223 0 -368.5 159t-145.5 403q0 243 141 402t361 159q216 0 346 -181h16v154h203v-836q0 -49 53 -49h50v-184h-146q-68 0 -111.5 39.5t-43.5 107.5h-15q-17 -23 -29.5 -38.5t-44.5 -44t-65.5 -46t-87 -31.5t-113.5 -14z
M631 160q148 0 240 107.5t92 264.5q0 173 -96 274t-238 101q-143 0 -237.5 -106t-94.5 -269q0 -166 96 -269t238 -103z" />
    <glyph glyph-name="aacute" unicode="&#xe1;" horiz-adv-x="1363" 
d="M530 1249l123 281h213l-182 -281h-154zM606 -27q-223 0 -368.5 159t-145.5 403q0 243 141 402t361 159q216 0 346 -181h16v154h203v-836q0 -49 53 -49h50v-184h-146q-68 0 -111.5 39.5t-43.5 107.5h-15q-17 -23 -29.5 -38.5t-44.5 -44t-65.5 -46t-87 -31.5t-113.5 -14z
M631 160q148 0 240 107.5t92 264.5q0 173 -96 274t-238 101q-143 0 -237.5 -106t-94.5 -269q0 -166 96 -269t238 -103z" />
    <glyph glyph-name="acircumflex" unicode="&#xe2;" horiz-adv-x="1363" 
d="M362 1249l199 273h199l198 -273h-174l-116 127h-15l-114 -127h-177zM606 -27q-223 0 -368.5 159t-145.5 403q0 243 141 402t361 159q216 0 346 -181h16v154h203v-836q0 -49 53 -49h50v-184h-146q-68 0 -111.5 39.5t-43.5 107.5h-15q-17 -23 -29.5 -38.5t-44.5 -44
t-65.5 -46t-87 -31.5t-113.5 -14zM631 160q148 0 240 107.5t92 264.5q0 173 -96 274t-238 101q-143 0 -237.5 -106t-94.5 -269q0 -166 96 -269t238 -103z" />
    <glyph glyph-name="atilde" unicode="&#xe3;" horiz-adv-x="1363" 
d="M778 1243q-39 0 -78 16t-66 35.5t-59.5 35.5t-58.5 16q-34 0 -55 -26t-21 -75h-141q0 125 59 191.5t150 66.5q50 0 100 -25t91 -50t69 -25q34 0 55 26t21 74h139q0 -124 -57.5 -192t-147.5 -68zM606 -27q-223 0 -368.5 159t-145.5 403q0 243 141 402t361 159
q216 0 346 -181h16v154h203v-836q0 -49 53 -49h50v-184h-146q-68 0 -111.5 39.5t-43.5 107.5h-15q-17 -23 -29.5 -38.5t-44.5 -44t-65.5 -46t-87 -31.5t-113.5 -14zM631 160q148 0 240 107.5t92 264.5q0 173 -96 274t-238 101q-143 0 -237.5 -106t-94.5 -269q0 -166 96 -269
t238 -103z" />
    <glyph glyph-name="adieresis" unicode="&#xe4;" horiz-adv-x="1363" 
d="M473 1262q-52 0 -87.5 34.5t-35.5 87.5q0 52 36 87.5t87 35.5q56 0 90.5 -35t34.5 -88q0 -54 -34 -88t-91 -34zM852 1262q-55 0 -90 34t-35 88q0 53 35 88t90 35q53 0 89 -35.5t36 -87.5q0 -53 -36 -87.5t-89 -34.5zM606 -27q-223 0 -368.5 159t-145.5 403q0 243 141 402
t361 159q216 0 346 -181h16v154h203v-836q0 -49 53 -49h50v-184h-146q-68 0 -111.5 39.5t-43.5 107.5h-15q-17 -23 -29.5 -38.5t-44.5 -44t-65.5 -46t-87 -31.5t-113.5 -14zM631 160q148 0 240 107.5t92 264.5q0 173 -96 274t-238 101q-143 0 -237.5 -106t-94.5 -269
q0 -166 96 -269t238 -103z" />
    <glyph glyph-name="aring" unicode="&#xe5;" horiz-adv-x="1363" 
d="M655 1188q-86 0 -142 54.5t-56 137.5q0 84 55.5 137.5t140.5 53.5q89 0 145 -53t56 -136q0 -85 -56.5 -139.5t-142.5 -54.5zM655 1296q38 0 60 23.5t22 62.5q0 36 -22.5 59t-61.5 23q-35 0 -57.5 -23.5t-22.5 -60.5t22.5 -60.5t59.5 -23.5zM606 -27q-223 0 -368.5 159
t-145.5 403q0 243 141 402t361 159q216 0 346 -181h16v154h203v-836q0 -49 53 -49h50v-184h-146q-68 0 -111.5 39.5t-43.5 107.5h-15q-17 -23 -29.5 -38.5t-44.5 -44t-65.5 -46t-87 -31.5t-113.5 -14zM631 160q148 0 240 107.5t92 264.5q0 173 -96 274t-238 101
q-143 0 -237.5 -106t-94.5 -269q0 -166 96 -269t238 -103z" />
    <glyph glyph-name="ae" unicode="&#xe6;" horiz-adv-x="1986" 
d="M506 -27q-191 0 -302.5 93.5t-111.5 246.5q0 148 106.5 235t278.5 87h359v55q0 97 -77.5 159t-187.5 62q-101 0 -171 -45.5t-93 -144.5l-180 45q25 152 141.5 243t302.5 91q141 0 244.5 -52.5t153.5 -154.5h12q139 203 401 203q239 0 375.5 -153t136.5 -398v-64h-833
q1 -156 89.5 -243.5t238.5 -87.5q103 0 185 54.5t109 151.5l191 -47q-49 -157 -179 -246.5t-306 -89.5q-146 0 -260 59t-183 165h-16q-66 -117 -170.5 -170.5t-253.5 -53.5zM1063 635h625q-7 132 -95 207.5t-215 75.5q-124 0 -214.5 -80.5t-100.5 -202.5zM520 158
q151 0 234 79.5t84 225.5v18h-332q-93 0 -151 -44t-58 -118q0 -72 59.5 -116.5t163.5 -44.5z" />
    <glyph glyph-name="ccedilla" unicode="&#xe7;" horiz-adv-x="1247" 
d="M1155 362q-39 -162 -155 -261.5t-277 -120.5l-33 -371h-182l57 368q-212 28 -342.5 183.5t-130.5 374.5q0 238 156 399.5t393 161.5q188 0 327.5 -103t182.5 -286l-195 -48q-22 112 -107 180t-202 68q-153 0 -249.5 -106.5t-96.5 -265.5q0 -161 98 -266t250 -105
q118 0 202.5 66t106.5 178z" />
    <glyph glyph-name="egrave" unicode="&#xe8;" horiz-adv-x="1226" 
d="M563 1249l-182 281h211l125 -281h-154zM629 -27q-243 0 -390 155.5t-147 403.5q0 124 42 230.5t113.5 179t167.5 113.5t203 41q240 0 378.5 -153.5t138.5 -397.5v-64h-834q1 -156 89.5 -243.5t238.5 -87.5q104 0 186 54.5t109 151.5l190 -47q-49 -157 -179 -246.5
t-306 -89.5zM303 635h625q-7 132 -95 207.5t-215 75.5q-124 0 -214.5 -80.5t-100.5 -202.5z" />
    <glyph glyph-name="eacute" unicode="&#xe9;" horiz-adv-x="1226" 
d="M496 1249l122 281h213l-182 -281h-153zM629 -27q-243 0 -390 155.5t-147 403.5q0 124 42 230.5t113.5 179t167.5 113.5t203 41q240 0 378.5 -153.5t138.5 -397.5v-64h-834q1 -156 89.5 -243.5t238.5 -87.5q104 0 186 54.5t109 151.5l190 -47q-49 -157 -179 -246.5
t-306 -89.5zM303 635h625q-7 132 -95 207.5t-215 75.5q-124 0 -214.5 -80.5t-100.5 -202.5z" />
    <glyph glyph-name="ecircumflex" unicode="&#xea;" horiz-adv-x="1226" 
d="M328 1249l198 273h199l199 -273h-174l-117 127h-15l-114 -127h-176zM629 -27q-243 0 -390 155.5t-147 403.5q0 124 42 230.5t113.5 179t167.5 113.5t203 41q240 0 378.5 -153.5t138.5 -397.5v-64h-834q1 -156 89.5 -243.5t238.5 -87.5q104 0 186 54.5t109 151.5l190 -47
q-49 -157 -179 -246.5t-306 -89.5zM303 635h625q-7 132 -95 207.5t-215 75.5q-124 0 -214.5 -80.5t-100.5 -202.5z" />
    <glyph glyph-name="edieresis" unicode="&#xeb;" horiz-adv-x="1226" 
d="M438 1262q-52 0 -87.5 34.5t-35.5 87.5q0 52 36 87.5t87 35.5q56 0 90.5 -35t34.5 -88q0 -54 -34 -88t-91 -34zM817 1262q-55 0 -90 34t-35 88q0 53 35 88t90 35q53 0 89 -35.5t36 -87.5q0 -53 -36 -87.5t-89 -34.5zM629 -27q-243 0 -390 155.5t-147 403.5
q0 124 42 230.5t113.5 179t167.5 113.5t203 41q240 0 378.5 -153.5t138.5 -397.5v-64h-834q1 -156 89.5 -243.5t238.5 -87.5q104 0 186 54.5t109 151.5l190 -47q-49 -157 -179 -246.5t-306 -89.5zM303 635h625q-7 132 -95 207.5t-215 75.5q-124 0 -214.5 -80.5
t-100.5 -202.5z" />
    <glyph glyph-name="igrave" unicode="&#xec;" horiz-adv-x="665" 
d="M299 1249l-182 281h211l125 -281h-154zM301 0v893h-195v176h398v-1069h-203z" />
    <glyph glyph-name="iacute" unicode="&#xed;" horiz-adv-x="665" 
d="M231 1249l123 281h213l-182 -281h-154zM301 0v893h-195v176h398v-1069h-203z" />
    <glyph glyph-name="icircumflex" unicode="&#xee;" horiz-adv-x="665" 
d="M63 1249l199 273h199l198 -273h-174l-116 127h-15l-114 -127h-177zM301 0v893h-195v176h398v-1069h-203z" />
    <glyph glyph-name="idieresis" unicode="&#xef;" horiz-adv-x="665" 
d="M174 1262q-52 0 -87.5 34.5t-35.5 87.5q0 52 36 87.5t87 35.5q56 0 90.5 -35t34.5 -88q0 -54 -34 -88t-91 -34zM553 1262q-55 0 -90 34t-35 88q0 53 35 88t90 35q53 0 89 -35.5t36 -87.5q0 -53 -36 -87.5t-89 -34.5zM301 0v893h-195v176h398v-1069h-203z" />
    <glyph glyph-name="eth" unicode="&#xf0;" horiz-adv-x="1267" 
d="M629 -27q-156 0 -279 70.5t-190.5 192.5t-67.5 272q0 151 69.5 271.5t186.5 185.5t258 65q126 0 223 -61h13q-41 60 -103.5 123.5t-113.5 99.5l-328 -127v135l207 84q-100 70 -225 131l116 96q162 -67 293 -159l277 106v-137l-162 -64q373 -315 373 -718
q0 -119 -37.5 -222t-106.5 -179.5t-173 -120.5t-230 -44zM631 162q162 0 250 103.5t88 260.5q0 137 -92 232.5t-238 95.5q-156 0 -248 -99.5t-92 -246.5t91 -246.5t241 -99.5z" />
    <glyph glyph-name="ntilde" unicode="&#xf1;" 
d="M791 1243q-39 0 -78.5 16t-66.5 35.5t-59.5 35.5t-58.5 16q-34 0 -54.5 -26t-20.5 -75h-142q0 125 59 191.5t150 66.5q50 0 100 -25t91 -50t69 -25q34 0 55 26t21 74h139q0 -125 -57 -192.5t-147 -67.5zM168 0v1069h203v-139h16q36 72 116 119t191 47q177 0 284 -117
t107 -293v-686h-202v651q0 112 -71.5 183t-174.5 71q-113 0 -189.5 -77.5t-76.5 -194.5v-633h-203z" />
    <glyph glyph-name="ograve" unicode="&#xf2;" horiz-adv-x="1306" 
d="M598 1249l-182 281h211l125 -281h-154zM651 -27q-242 0 -400.5 160t-158.5 402q0 119 42.5 223t116.5 178.5t178 117t224 42.5q243 0 402 -160.5t159 -400.5t-160 -401t-403 -161zM651 164q156 0 256.5 104.5t100.5 266.5q0 161 -100.5 266.5t-256.5 105.5
q-154 0 -253 -106t-99 -266q0 -163 99 -267t253 -104z" />
    <glyph glyph-name="oacute" unicode="&#xf3;" horiz-adv-x="1306" 
d="M530 1249l123 281h213l-182 -281h-154zM651 -27q-242 0 -400.5 160t-158.5 402q0 119 42.5 223t116.5 178.5t178 117t224 42.5q243 0 402 -160.5t159 -400.5t-160 -401t-403 -161zM651 164q156 0 256.5 104.5t100.5 266.5q0 161 -100.5 266.5t-256.5 105.5
q-154 0 -253 -106t-99 -266q0 -163 99 -267t253 -104z" />
    <glyph glyph-name="ocircumflex" unicode="&#xf4;" horiz-adv-x="1306" 
d="M362 1249l199 273h199l198 -273h-174l-116 127h-15l-114 -127h-177zM651 -27q-242 0 -400.5 160t-158.5 402q0 119 42.5 223t116.5 178.5t178 117t224 42.5q243 0 402 -160.5t159 -400.5t-160 -401t-403 -161zM651 164q156 0 256.5 104.5t100.5 266.5q0 161 -100.5 266.5
t-256.5 105.5q-154 0 -253 -106t-99 -266q0 -163 99 -267t253 -104z" />
    <glyph glyph-name="otilde" unicode="&#xf5;" horiz-adv-x="1306" 
d="M778 1243q-39 0 -78 16t-66 35.5t-59.5 35.5t-58.5 16q-34 0 -55 -26t-21 -75h-141q0 125 59 191.5t150 66.5q50 0 100 -25t91 -50t69 -25q34 0 55 26t21 74h139q0 -124 -57.5 -192t-147.5 -68zM651 -27q-242 0 -400.5 160t-158.5 402q0 119 42.5 223t116.5 178.5
t178 117t224 42.5q243 0 402 -160.5t159 -400.5t-160 -401t-403 -161zM651 164q156 0 256.5 104.5t100.5 266.5q0 161 -100.5 266.5t-256.5 105.5q-154 0 -253 -106t-99 -266q0 -163 99 -267t253 -104z" />
    <glyph glyph-name="odieresis" unicode="&#xf6;" horiz-adv-x="1306" 
d="M473 1262q-52 0 -87.5 34.5t-35.5 87.5q0 52 36 87.5t87 35.5q56 0 90.5 -35t34.5 -88q0 -54 -34 -88t-91 -34zM852 1262q-55 0 -90 34t-35 88q0 53 35 88t90 35q53 0 89 -35.5t36 -87.5q0 -53 -36 -87.5t-89 -34.5zM651 -27q-242 0 -400.5 160t-158.5 402
q0 119 42.5 223t116.5 178.5t178 117t224 42.5q243 0 402 -160.5t159 -400.5t-160 -401t-403 -161zM651 164q156 0 256.5 104.5t100.5 266.5q0 161 -100.5 266.5t-256.5 105.5q-154 0 -253 -106t-99 -266q0 -163 99 -267t253 -104z" />
    <glyph glyph-name="divide" unicode="&#xf7;" horiz-adv-x="993" 
d="M494 881q-49 0 -82 32.5t-33 79.5q0 48 33 81.5t82 33.5q47 0 78.5 -33.5t31.5 -81.5q0 -47 -31.5 -79.5t-78.5 -32.5zM10 549v176h973v-176h-973zM494 168q-49 0 -82 33.5t-33 79.5q0 48 33 81t82 33q47 0 78.5 -33t31.5 -81q0 -46 -31.5 -79.5t-78.5 -33.5z" />
    <glyph glyph-name="oslash" unicode="&#xf8;" horiz-adv-x="1306" 
d="M295 -59l-117 94l76 96q-77 76 -119.5 180t-42.5 224q0 119 42.5 223t116.5 178.5t178 117t224 42.5q161 0 295 -78l76 98l117 -96l-74 -96q147 -157 147 -389q0 -240 -160 -401t-403 -161q-148 0 -278 68zM379 291l448 573q-81 43 -176 43q-154 0 -253 -106t-99 -266
q0 -145 80 -244zM651 164q156 0 256.5 104.5t100.5 266.5q0 131 -68 227l-444 -565q78 -33 155 -33z" />
    <glyph glyph-name="ugrave" unicode="&#xf9;" 
d="M561 1249l-182 281h211l125 -281h-154zM549 -27q-177 0 -284 117t-107 293v686h202v-651q0 -112 71 -182t175 -70q113 0 189.5 77t76.5 193v633h203v-1069h-203v139h-16q-36 -72 -116 -119t-191 -47z" />
    <glyph glyph-name="uacute" unicode="&#xfa;" 
d="M494 1249l122 281h213l-182 -281h-153zM549 -27q-177 0 -284 117t-107 293v686h202v-651q0 -112 71 -182t175 -70q113 0 189.5 77t76.5 193v633h203v-1069h-203v139h-16q-36 -72 -116 -119t-191 -47z" />
    <glyph glyph-name="ucircumflex" unicode="&#xfb;" 
d="M326 1249l198 273h199l199 -273h-174l-117 127h-15l-114 -127h-176zM549 -27q-177 0 -284 117t-107 293v686h202v-651q0 -112 71 -182t175 -70q113 0 189.5 77t76.5 193v633h203v-1069h-203v139h-16q-36 -72 -116 -119t-191 -47z" />
    <glyph glyph-name="udieresis" unicode="&#xfc;" 
d="M436 1262q-52 0 -87.5 34.5t-35.5 87.5q0 52 36 87.5t87 35.5q56 0 90.5 -35t34.5 -88q0 -54 -34 -88t-91 -34zM815 1262q-55 0 -90 34t-35 88q0 53 35 88t90 35q53 0 89 -35.5t36 -87.5q0 -53 -36 -87.5t-89 -34.5zM549 -27q-177 0 -284 117t-107 293v686h202v-651
q0 -112 71 -182t175 -70q113 0 189.5 77t76.5 193v633h203v-1069h-203v139h-16q-36 -72 -116 -119t-191 -47z" />
    <glyph glyph-name="yacute" unicode="&#xfd;" horiz-adv-x="1134" 
d="M449 1249l122 281h213l-182 -281h-153zM113 -471v184h137q63 0 99.5 27t60.5 86l67 174h-51l-381 1069h221l281 -874h16l303 874h224l-510 -1333q-80 -207 -332 -207h-135z" />
    <glyph glyph-name="thorn" unicode="&#xfe;" horiz-adv-x="1329" 
d="M170 -446l-2 1968h203v-600h14q130 174 338 174q222 0 368 -158.5t146 -400.5q0 -245 -141 -404.5t-361 -159.5q-73 0 -134.5 18t-103 48.5t-66.5 57.5t-44 57h-14v-600h-203zM700 162q142 0 236 105.5t94 269.5q0 165 -95.5 267.5t-238.5 102.5q-147 0 -238 -107.5
t-91 -262.5q0 -173 95.5 -274t237.5 -101z" />
    <glyph glyph-name="ydieresis" unicode="&#xff;" horiz-adv-x="1134" 
d="M391 1262q-52 0 -87.5 34.5t-35.5 87.5q0 52 36 87.5t87 35.5q56 0 90.5 -35t34.5 -88q0 -54 -34 -88t-91 -34zM770 1262q-55 0 -90 34t-35 88q0 53 35 88t90 35q53 0 89 -35.5t36 -87.5q0 -53 -36 -87.5t-89 -34.5zM113 -471v184h137q63 0 99.5 27t60.5 86l67 174h-51
l-381 1069h221l281 -874h16l303 874h224l-510 -1333q-80 -207 -332 -207h-135z" />
    <glyph glyph-name="Amacron" unicode="&#x100;" horiz-adv-x="1388" 
d="M432 1651v166h522v-166h-522zM33 0l518 1434h293l512 -1434h-219l-115 324h-660l-114 -324h-215zM430 514h524l-254 721h-16z" />
    <glyph glyph-name="amacron" unicode="&#x101;" horiz-adv-x="1363" 
d="M391 1286v166h522v-166h-522zM606 -27q-223 0 -368.5 159t-145.5 403q0 243 141 402t361 159q216 0 346 -181h16v154h203v-836q0 -49 53 -49h50v-184h-146q-68 0 -111.5 39.5t-43.5 107.5h-15q-17 -23 -29.5 -38.5t-44.5 -44t-65.5 -46t-87 -31.5t-113.5 -14zM631 160
q148 0 240 107.5t92 264.5q0 173 -96 274t-238 101q-143 0 -237.5 -106t-94.5 -269q0 -166 96 -269t238 -103z" />
    <glyph glyph-name="Abreve" unicode="&#x102;" horiz-adv-x="1388" 
d="M694 1602q-133 0 -205.5 74.5t-72.5 199.5h162q0 -61 29 -97t87 -36q55 0 85 37t30 96h162q0 -124 -72.5 -199t-204.5 -75zM33 0l518 1434h293l512 -1434h-219l-115 324h-660l-114 -324h-215zM430 514h524l-254 721h-16z" />
    <glyph glyph-name="abreve" unicode="&#x103;" horiz-adv-x="1363" 
d="M653 1237q-133 0 -205.5 74.5t-72.5 199.5h162q0 -61 29 -97t87 -36q55 0 85 37t30 96h162q0 -124 -72.5 -199t-204.5 -75zM606 -27q-223 0 -368.5 159t-145.5 403q0 243 141 402t361 159q216 0 346 -181h16v154h203v-836q0 -49 53 -49h50v-184h-146q-68 0 -111.5 39.5
t-43.5 107.5h-15q-17 -23 -29.5 -38.5t-44.5 -44t-65.5 -46t-87 -31.5t-113.5 -14zM631 160q148 0 240 107.5t92 264.5q0 173 -96 274t-238 101q-143 0 -237.5 -106t-94.5 -269q0 -166 96 -269t238 -103z" />
    <glyph glyph-name="Aogonek" unicode="&#x104;" horiz-adv-x="1388" 
d="M1219 -178q0 -28 18.5 -44t50.5 -16h68v-153h-109q-89 0 -146 40t-57 130q0 73 72 149l70 72h-49l-115 324h-660l-114 -324h-215l518 1434h293l512 -1434l-92 -94q-45 -48 -45 -84zM430 514h524l-254 721h-16z" />
    <glyph glyph-name="aogonek" unicode="&#x105;" horiz-adv-x="1363" 
d="M1262 0l-93 -94q-45 -48 -45 -84q0 -28 19 -44t51 -16h68v-153h-109q-89 0 -146 40t-57 130q0 73 72 149l70 72h24q-68 0 -111.5 39.5t-43.5 107.5h-15q-17 -23 -29.5 -38.5t-44.5 -44t-65.5 -46t-87 -31.5t-113.5 -14q-223 0 -368.5 159t-145.5 403q0 243 141 402
t361 159q216 0 346 -181h16v154h203v-836q0 -49 53 -49h50v-184zM631 160q148 0 240 107.5t92 264.5q0 173 -96 274t-238 101q-143 0 -237.5 -106t-94.5 -269q0 -166 96 -269t238 -103z" />
    <glyph glyph-name="Cacute" unicode="&#x106;" horiz-adv-x="1589" 
d="M702 1614l123 280h213l-182 -280h-154zM827 -29q-156 0 -292.5 57.5t-232.5 156.5t-151 237t-55 295q0 155 55.5 292.5t151.5 236.5t232 156.5t292 57.5q241 0 422 -131.5t252 -351.5h-225q-54 131 -175 208t-274 77q-223 0 -368.5 -155.5t-145.5 -389.5
q0 -156 65.5 -281t183.5 -195.5t265 -70.5q153 0 275 77t174 210h225q-69 -223 -251 -354.5t-423 -131.5z" />
    <glyph glyph-name="cacute" unicode="&#x107;" horiz-adv-x="1247" 
d="M518 1249l123 281h213l-182 -281h-154zM643 -27q-160 0 -287 75t-195.5 203t-68.5 284q0 238 156 399.5t393 161.5q188 0 327.5 -103t182.5 -286l-195 -48q-22 112 -107 180t-202 68q-153 0 -249.5 -106.5t-96.5 -265.5q0 -161 98 -266t250 -105q118 0 202.5 66
t106.5 178l197 -46q-43 -183 -183.5 -286t-328.5 -103z" />
    <glyph glyph-name="Cdotaccent" unicode="&#x10a;" horiz-adv-x="1589" 
d="M829 1612q-58 0 -96.5 39t-38.5 98q0 56 38.5 94.5t96.5 38.5q59 0 98.5 -38.5t39.5 -94.5q0 -59 -39 -98t-99 -39zM827 -29q-156 0 -292.5 57.5t-232.5 156.5t-151 237t-55 295q0 155 55.5 292.5t151.5 236.5t232 156.5t292 57.5q241 0 422 -131.5t252 -351.5h-225
q-54 131 -175 208t-274 77q-223 0 -368.5 -155.5t-145.5 -389.5q0 -156 65.5 -281t183.5 -195.5t265 -70.5q153 0 275 77t174 210h225q-69 -223 -251 -354.5t-423 -131.5z" />
    <glyph glyph-name="cdotaccent" unicode="&#x10b;" horiz-adv-x="1247" 
d="M645 1247q-58 0 -96.5 39t-38.5 98q0 56 38.5 95t96.5 39q59 0 98 -39t39 -95q0 -59 -38.5 -98t-98.5 -39zM643 -27q-160 0 -287 75t-195.5 203t-68.5 284q0 238 156 399.5t393 161.5q188 0 327.5 -103t182.5 -286l-195 -48q-22 112 -107 180t-202 68
q-153 0 -249.5 -106.5t-96.5 -265.5q0 -161 98 -266t250 -105q118 0 202.5 66t106.5 178l197 -46q-43 -183 -183.5 -286t-328.5 -103z" />
    <glyph glyph-name="Ccaron" unicode="&#x10c;" horiz-adv-x="1589" 
d="M733 1614l-198 272h176l114 -129h15l116 129h174l-198 -272h-199zM827 -29q-156 0 -292.5 57.5t-232.5 156.5t-151 237t-55 295q0 155 55.5 292.5t151.5 236.5t232 156.5t292 57.5q241 0 422 -131.5t252 -351.5h-225q-54 131 -175 208t-274 77q-223 0 -368.5 -155.5
t-145.5 -389.5q0 -156 65.5 -281t183.5 -195.5t265 -70.5q153 0 275 77t174 210h225q-69 -223 -251 -354.5t-423 -131.5z" />
    <glyph glyph-name="ccaron" unicode="&#x10d;" horiz-adv-x="1247" 
d="M549 1249l-199 273h176l115 -129h14l117 129h174l-198 -273h-199zM643 -27q-160 0 -287 75t-195.5 203t-68.5 284q0 238 156 399.5t393 161.5q188 0 327.5 -103t182.5 -286l-195 -48q-22 112 -107 180t-202 68q-153 0 -249.5 -106.5t-96.5 -265.5q0 -161 98 -266
t250 -105q118 0 202.5 66t106.5 178l197 -46q-43 -183 -183.5 -286t-328.5 -103z" />
    <glyph glyph-name="Dcaron" unicode="&#x10e;" horiz-adv-x="1501" 
d="M635 1614l-199 272h176l115 -129h14l117 129h174l-198 -272h-199zM147 0v180h132v1073h-132v181h535q225 0 390 -92.5t249 -253.5t84 -371q0 -335 -190.5 -526t-532.5 -191h-535zM487 188h195q238 0 373 139.5t135 389.5q0 244 -134 385t-374 141h-195v-1055z" />
    <glyph glyph-name="dcaron" unicode="&#x10f;" horiz-adv-x="1507" 
d="M606 -27q-222 0 -368 159t-146 403q0 243 141 402t361 159q216 0 346 -181h16v621h203v-1536h-198v147h-15q-19 -25 -30 -37.5t-45 -43t-66.5 -47t-86 -31.5t-112.5 -15zM1305 1155v381h202l-49 -381h-153zM631 160q148 0 240 107.5t92 264.5q0 173 -96 274t-238 101
q-143 0 -237.5 -106t-94.5 -269q0 -166 96 -269t238 -103z" />
    <glyph glyph-name="Dcroat" unicode="&#x110;" horiz-adv-x="1501" 
d="M147 0v180h132v451h-115v188h115v434h-132v181h541q224 0 387.5 -92.5t246.5 -253.5t83 -371q0 -335 -188.5 -526t-528.5 -191h-541zM487 188h201q238 0 370 139t132 390q0 244 -132.5 385t-369.5 141h-201v-424h291v-188h-291v-443z" />
    <glyph glyph-name="dcroat" unicode="&#x111;" horiz-adv-x="1306" 
d="M1288 1350v-152h-129v-1198h-198v147h-15q-19 -25 -30 -37.5t-45 -43t-66.5 -47t-86 -31.5t-112.5 -15q-222 0 -368 159t-146 403q0 243 141 402t361 159q216 0 346 -181h16v283h-290v152h290v186h203v-186h129zM631 160q148 0 240 107.5t92 264.5q0 173 -96 274
t-238 101q-143 0 -237.5 -106t-94.5 -269q0 -166 96 -269t238 -103z" />
    <glyph glyph-name="Emacron" unicode="&#x112;" horiz-adv-x="1150" 
d="M367 1651v166h522v-166h-522zM188 0v1434h844v-193h-635v-416h547v-190h-547v-442h656v-193h-865z" />
    <glyph glyph-name="emacron" unicode="&#x113;" horiz-adv-x="1226" 
d="M356 1286v166h523v-166h-523zM629 -27q-243 0 -390 155.5t-147 403.5q0 124 42 230.5t113.5 179t167.5 113.5t203 41q240 0 378.5 -153.5t138.5 -397.5v-64h-834q1 -156 89.5 -243.5t238.5 -87.5q104 0 186 54.5t109 151.5l190 -47q-49 -157 -179 -246.5t-306 -89.5z
M303 635h625q-7 132 -95 207.5t-215 75.5q-124 0 -214.5 -80.5t-100.5 -202.5z" />
    <glyph glyph-name="Edotaccent" unicode="&#x116;" horiz-adv-x="1150" 
d="M633 1612q-58 0 -96.5 39t-38.5 98q0 56 38.5 94.5t96.5 38.5q59 0 98 -38.5t39 -94.5q0 -59 -38.5 -98t-98.5 -39zM188 0v1434h844v-193h-635v-416h547v-190h-547v-442h656v-193h-865z" />
    <glyph glyph-name="edotaccent" unicode="&#x117;" horiz-adv-x="1226" 
d="M623 1247q-58 0 -97 39t-39 98q0 56 39 95t97 39q59 0 98 -39t39 -95q0 -59 -38.5 -98t-98.5 -39zM629 -27q-243 0 -390 155.5t-147 403.5q0 124 42 230.5t113.5 179t167.5 113.5t203 41q240 0 378.5 -153.5t138.5 -397.5v-64h-834q1 -156 89.5 -243.5t238.5 -87.5
q104 0 186 54.5t109 151.5l190 -47q-49 -157 -179 -246.5t-306 -89.5zM303 635h625q-7 132 -95 207.5t-215 75.5q-124 0 -214.5 -80.5t-100.5 -202.5z" />
    <glyph glyph-name="Eogonek" unicode="&#x118;" horiz-adv-x="1150" 
d="M1053 0l-92 -94q-46 -49 -46 -84q0 -28 19 -44t51 -16h68v-153h-109q-89 0 -146 40t-57 130q0 73 72 149l70 72h-695v1434h844v-193h-635v-416h547v-190h-547v-442h656v-193z" />
    <glyph glyph-name="eogonek" unicode="&#x119;" horiz-adv-x="1226" 
d="M1135 545v-64h-834q1 -156 89.5 -243.5t238.5 -87.5q104 0 186 54.5t109 151.5l190 -47q-42 -137 -146.5 -222t-250.5 -107l-72 -74q-45 -48 -45 -84q0 -28 19 -44t51 -16h67v-153h-108q-89 0 -146 40t-57 130q0 73 72 149l49 52q-209 26 -332 176.5t-123 375.5
q0 124 42 230.5t113.5 179t167.5 113.5t203 41q240 0 378.5 -153.5t138.5 -397.5zM303 635h625q-7 132 -95 207.5t-215 75.5q-124 0 -214.5 -80.5t-100.5 -202.5z" />
    <glyph glyph-name="Ecaron" unicode="&#x11a;" horiz-adv-x="1150" 
d="M537 1614l-199 272h176l115 -129h14l117 129h174l-199 -272h-198zM188 0v1434h844v-193h-635v-416h547v-190h-547v-442h656v-193h-865z" />
    <glyph glyph-name="ecaron" unicode="&#x11b;" horiz-adv-x="1226" 
d="M526 1249l-198 273h176l114 -129h15l117 129h174l-199 -273h-199zM629 -27q-243 0 -390 155.5t-147 403.5q0 124 42 230.5t113.5 179t167.5 113.5t203 41q240 0 378.5 -153.5t138.5 -397.5v-64h-834q1 -156 89.5 -243.5t238.5 -87.5q104 0 186 54.5t109 151.5l190 -47
q-49 -157 -179 -246.5t-306 -89.5zM303 635h625q-7 132 -95 207.5t-215 75.5q-124 0 -214.5 -80.5t-100.5 -202.5z" />
    <glyph glyph-name="Gbreve" unicode="&#x11e;" horiz-adv-x="1642" 
d="M827 1602q-133 0 -205.5 74.5t-72.5 199.5h162q0 -61 29 -97t87 -36q55 0 85 37t30 96h162q0 -124 -72.5 -199t-204.5 -75zM829 -29q-208 1 -376 98.5t-262.5 268t-94.5 379.5q0 155 55.5 292.5t151.5 236.5t232 156.5t292 57.5q241 0 423 -131.5t253 -351.5h-227
q-54 131 -175 208t-274 77q-223 0 -368.5 -155.5t-145.5 -389.5q0 -236 147 -391.5t371 -155.5q80 0 153 19.5t137.5 59t113 107t72.5 156.5h-420v180h659q-14 -153 -62 -277t-117.5 -205.5t-159 -136.5t-183.5 -78.5t-195 -23.5z" />
    <glyph glyph-name="gbreve" unicode="&#x11f;" horiz-adv-x="1316" 
d="M649 1237q-133 0 -205.5 74.5t-72.5 199.5h161q0 -61 29.5 -97t87.5 -36q55 0 85 37t30 96h162q0 -124 -72.5 -199t-204.5 -75zM352 -471v176h471q70 0 101.5 33.5t31.5 105.5v310h-16q-18 -30 -43 -57t-66 -57.5t-102.5 -48.5t-134.5 -18q-220 0 -361 159.5t-141 404.5
q0 242 146 400.5t368 158.5q59 0 112.5 -15t86 -31.5t66.5 -47t45 -43t30 -37.5h15v147h198v-1227q0 -160 -88.5 -236.5t-245.5 -76.5h-473zM629 162q142 0 238 101t96 274q0 155 -92 262.5t-240 107.5q-141 0 -236.5 -102.5t-95.5 -267.5t93.5 -270t236.5 -105z" />
    <glyph glyph-name="Gdotaccent" unicode="&#x120;" horiz-adv-x="1642" 
d="M831 1612q-58 0 -96.5 39t-38.5 98q0 56 38.5 94.5t96.5 38.5q59 0 98.5 -38.5t39.5 -94.5q0 -59 -39 -98t-99 -39zM829 -29q-208 1 -376 98.5t-262.5 268t-94.5 379.5q0 155 55.5 292.5t151.5 236.5t232 156.5t292 57.5q241 0 423 -131.5t253 -351.5h-227
q-54 131 -175 208t-274 77q-223 0 -368.5 -155.5t-145.5 -389.5q0 -236 147 -391.5t371 -155.5q80 0 153 19.5t137.5 59t113 107t72.5 156.5h-420v180h659q-14 -153 -62 -277t-117.5 -205.5t-159 -136.5t-183.5 -78.5t-195 -23.5z" />
    <glyph glyph-name="gdotaccent" unicode="&#x121;" horiz-adv-x="1316" 
d="M653 1247q-58 0 -96.5 39t-38.5 98q0 56 38.5 95t96.5 39q59 0 98.5 -39t39.5 -95q0 -59 -39 -98t-99 -39zM352 -471v176h471q70 0 101.5 33.5t31.5 105.5v310h-16q-18 -30 -43 -57t-66 -57.5t-102.5 -48.5t-134.5 -18q-220 0 -361 159.5t-141 404.5q0 242 146 400.5
t368 158.5q59 0 112.5 -15t86 -31.5t66.5 -47t45 -43t30 -37.5h15v147h198v-1227q0 -160 -88.5 -236.5t-245.5 -76.5h-473zM629 162q142 0 238 101t96 274q0 155 -92 262.5t-240 107.5q-141 0 -236.5 -102.5t-95.5 -267.5t93.5 -270t236.5 -105z" />
    <glyph glyph-name="Gcommaaccent" unicode="&#x122;" horiz-adv-x="1642" 
d="M829 -29q-208 1 -376 98.5t-262.5 268t-94.5 379.5q0 155 55.5 292.5t151.5 236.5t232 156.5t292 57.5q241 0 423 -131.5t253 -351.5h-227q-54 131 -175 208t-274 77q-223 0 -368.5 -155.5t-145.5 -389.5q0 -236 147 -391.5t371 -155.5q80 0 153 19.5t137.5 59t113 107
t72.5 156.5h-420v180h659q-14 -153 -62 -277t-117.5 -205.5t-159 -136.5t-183.5 -78.5t-195 -23.5zM705 -469l32 346h191l-76 -346h-147z" />
    <glyph glyph-name="gcommaaccent" unicode="&#x123;" horiz-adv-x="1316" 
d="M756 1599l-33 -346h-191l76 346h148zM352 -471v176h471q70 0 101.5 33.5t31.5 105.5v310h-16q-18 -30 -43 -57t-66 -57.5t-102.5 -48.5t-134.5 -18q-220 0 -361 159.5t-141 404.5q0 242 146 400.5t368 158.5q59 0 112.5 -15t86 -31.5t66.5 -47t45 -43t30 -37.5h15v147
h198v-1227q0 -160 -88.5 -236.5t-245.5 -76.5h-473zM629 162q142 0 238 101t96 274q0 155 -92 262.5t-240 107.5q-141 0 -236.5 -102.5t-95.5 -267.5t93.5 -270t236.5 -105z" />
    <glyph glyph-name="Hcircumflex" unicode="&#x124;" horiz-adv-x="1488" 
d="M477 1614l199 272h198l199 -272h-174l-117 127h-14l-115 -127h-176zM188 0v1434h209v-609h697v609h206v-1434h-206v633h-697v-633h-209z" />
    <glyph glyph-name="hcircumflex" unicode="&#x125;" horiz-adv-x="1241" 
d="M-27 1614l199 272h199l198 -272h-174l-116 127h-15l-114 -127h-177zM168 0v1536h203v-606h16q36 71 117.5 118.5t191.5 47.5q178 0 288 -117.5t110 -292.5v-686h-203v651q0 112 -73.5 183t-178.5 71q-111 0 -189.5 -75t-78.5 -187v-643h-203z" />
    <glyph glyph-name="Hbar" unicode="&#x126;" horiz-adv-x="1488" 
d="M1399 1235v-184h-99v-1051h-206v633h-697v-633h-209v1051h-98v184h98v199h209v-199h697v199h206v-199h99zM1094 825v226h-697v-226h697z" />
    <glyph glyph-name="hbar" unicode="&#x127;" horiz-adv-x="1241" 
d="M696 1096q178 0 288 -117.5t110 -292.5v-686h-203v651q0 112 -73.5 183t-178.5 71q-111 0 -189.5 -75t-78.5 -187v-643h-203v1198h-117v152h117v186h203v-186h303v-152h-303v-268h16q36 71 117.5 118.5t191.5 47.5z" />
    <glyph glyph-name="Imacron" unicode="&#x12a;" horiz-adv-x="960" 
d="M225 1651v166h523v-166h-523zM168 0v186h209v1061h-209v187h625v-187h-209v-1061h209v-186h-625z" />
    <glyph glyph-name="imacron" unicode="&#x12b;" horiz-adv-x="665" 
d="M92 1286v166h522v-166h-522zM301 0v893h-195v176h398v-1069h-203z" />
    <glyph glyph-name="Iogonek" unicode="&#x12e;" horiz-adv-x="960" 
d="M793 1247h-209v-1061h209v-186l-93 -94q-45 -48 -45 -84q0 -28 19 -44t51 -16h68v-153h-109q-89 0 -146 40t-57 130q0 73 72 149l70 72h-455v186h209v1061h-209v187h625v-187z" />
    <glyph glyph-name="iogonek" unicode="&#x12f;" horiz-adv-x="665" 
d="M403 1247q-58 0 -96.5 39t-38.5 98q0 56 38.5 95t96.5 39q59 0 98.5 -39t39.5 -95q0 -59 -39 -98t-99 -39zM106 893v176h398v-1069l-92 -94q-45 -48 -45 -84q0 -28 18.5 -44t50.5 -16h68v-153h-109q-89 0 -145.5 40t-56.5 130q0 74 71 149l70 72h-33v893h-195z" />
    <glyph glyph-name="Idotaccent" unicode="&#x130;" horiz-adv-x="960" 
d="M492 1612q-58 0 -97 39t-39 98q0 56 39 94.5t97 38.5q59 0 98 -38.5t39 -94.5q0 -59 -38.5 -98t-98.5 -39zM168 0v186h209v1061h-209v187h625v-187h-209v-1061h209v-186h-625z" />
    <glyph glyph-name="dotlessi" unicode="&#x131;" horiz-adv-x="665" 
d="M301 0v893h-195v176h398v-1069h-203z" />
    <glyph glyph-name="Jcircumflex" unicode="&#x134;" horiz-adv-x="1110" 
d="M350 1614l199 272h199l198 -272h-174l-117 127h-14l-115 -127h-176zM487 -25q-88 0 -165 26t-138.5 75.5t-97 131.5t-35.5 185h209q0 -106 61 -164.5t173 -58.5q64 0 111 23t72.5 63t37.5 86.5t12 101.5v799h-418v191h627v-985q0 -95 -24.5 -177t-75.5 -150
t-140.5 -107.5t-208.5 -39.5z" />
    <glyph glyph-name="jcircumflex" unicode="&#x135;" horiz-adv-x="679" 
d="M47 1249l199 273h198l199 -273h-174l-117 127h-14l-115 -127h-176zM14 -471v182h179q69 0 100 31.5t31 101.5v1049h-224v176h426v-1227q0 -160 -88 -236.5t-245 -76.5h-179z" />
    <glyph glyph-name="Kcommaaccent" unicode="&#x136;" horiz-adv-x="1292" 
d="M188 0v1434h209v-596h181l399 596h250l-475 -689l499 -745h-256l-417 645h-181v-645h-209zM553 -469l33 346h190l-76 -346h-147z" />
    <glyph glyph-name="kcommaaccent" unicode="&#x137;" horiz-adv-x="1105" 
d="M168 0v1536h203v-864h155l283 397h238l-345 -473v-16l367 -580h-242l-295 487h-161v-487h-203zM457 -469l32 346h191l-76 -346h-147z" />
    <glyph glyph-name="kgreenlandic" unicode="&#x138;" horiz-adv-x="1105" 
d="M168 0v1069h203v-397h155l283 397h238l-345 -473v-16l367 -580h-242l-295 487h-161v-487h-203z" />
    <glyph glyph-name="Lacute" unicode="&#x139;" horiz-adv-x="1091" 
d="M193 1614l122 280h213l-182 -280h-153zM188 0v1434h209v-1244h602v-190h-811z" />
    <glyph glyph-name="lacute" unicode="&#x13a;" horiz-adv-x="813" 
d="M305 1614l123 280h213l-182 -280h-154zM117 0v176h209v1182h-209v178h411v-1360h207v-176h-618z" />
    <glyph glyph-name="Lcommaaccent" unicode="&#x13b;" horiz-adv-x="1091" 
d="M188 0v1434h209v-1244h602v-190h-811zM465 -469l33 346h190l-76 -346h-147z" />
    <glyph glyph-name="lcommaaccent" unicode="&#x13c;" horiz-adv-x="813" 
d="M117 0v176h209v1182h-209v178h411v-1360h207v-176h-618zM289 -469l33 346h190l-76 -346h-147z" />
    <glyph glyph-name="Lcaron" unicode="&#x13d;" horiz-adv-x="1091" 
d="M188 0v1434h209v-1244h602v-190h-811zM698 1053v381h203l-49 -381h-154z" />
    <glyph glyph-name="lcaron" unicode="&#x13e;" horiz-adv-x="911" 
d="M117 0v176h209v1182h-209v178h411v-1360h207v-176h-618zM709 1155v381h202l-49 -381h-153z" />
    <glyph glyph-name="Ldot" unicode="&#x13f;" horiz-adv-x="1228" 
d="M188 0v1434h209v-1244h602v-190h-811zM733 653q-56 0 -95.5 39t-39.5 94t39.5 93.5t95.5 38.5t94.5 -38.5t38.5 -93.5q0 -56 -39 -94.5t-94 -38.5z" />
    <glyph glyph-name="ldot" unicode="&#x140;" horiz-adv-x="1175" 
d="M117 0v176h209v1182h-209v178h411v-1360h207v-176h-618zM838 653q-56 0 -96 39t-40 94t40 93.5t96 38.5t94.5 -38.5t38.5 -93.5q0 -56 -38.5 -94.5t-94.5 -38.5z" />
    <glyph glyph-name="Lslash" unicode="&#x141;" horiz-adv-x="1091" 
d="M397 190h602v-190h-811v504l-151 -80v201l151 80v729h209v-621l357 186v-200l-357 -187v-422z" />
    <glyph glyph-name="lslash" unicode="&#x142;" horiz-adv-x="884" 
d="M555 176h207v-176h-619v176h209v463l-200 -98v200l200 99v518h-209v178h412v-596l203 100v-200l-203 -101v-563z" />
    <glyph glyph-name="Nacute" unicode="&#x143;" horiz-adv-x="1497" 
d="M659 1614l123 280h213l-182 -280h-154zM188 0v1434h349l553 -1235h14v1235h205v-1434h-353l-544 1235h-15v-1235h-209z" />
    <glyph glyph-name="nacute" unicode="&#x144;" 
d="M543 1249l123 281h213l-183 -281h-153zM168 0v1069h203v-139h16q36 72 116 119t191 47q177 0 284 -117t107 -293v-686h-202v651q0 112 -71.5 183t-174.5 71q-113 0 -189.5 -77.5t-76.5 -194.5v-633h-203z" />
    <glyph glyph-name="Ncommaaccent" unicode="&#x145;" horiz-adv-x="1497" 
d="M188 0v1434h349l553 -1235h14v1235h205v-1434h-353l-544 1235h-15v-1235h-209zM633 -469l33 346h190l-76 -346h-147z" />
    <glyph glyph-name="ncommaaccent" unicode="&#x146;" 
d="M168 0v1069h203v-139h16q36 72 116 119t191 47q177 0 284 -117t107 -293v-686h-202v651q0 112 -71.5 183t-174.5 71q-113 0 -189.5 -77.5t-76.5 -194.5v-633h-203zM502 -469l33 346h190l-76 -346h-147z" />
    <glyph glyph-name="Ncaron" unicode="&#x147;" horiz-adv-x="1497" 
d="M690 1614l-198 272h176l114 -129h15l116 129h174l-198 -272h-199zM188 0v1434h349l553 -1235h14v1235h205v-1434h-353l-544 1235h-15v-1235h-209z" />
    <glyph glyph-name="ncaron" unicode="&#x148;" 
d="M573 1249l-198 273h176l115 -129h14l117 129h174l-199 -273h-199zM168 0v1069h203v-139h16q36 72 116 119t191 47q177 0 284 -117t107 -293v-686h-202v651q0 112 -71.5 183t-174.5 71q-113 0 -189.5 -77.5t-76.5 -194.5v-633h-203z" />
    <glyph glyph-name="Eng" unicode="&#x14a;" horiz-adv-x="1497" 
d="M1104 1434h205v-1434q0 -95 -24.5 -176.5t-75 -149t-138.5 -106.5t-205 -39v195q64 0 111 23t73 63t38 86.5t12 101.5v2h-144l-544 1235h-15v-1235h-209v1434h349l553 -1235h14v1235z" />
    <glyph glyph-name="eng" unicode="&#x14b;" 
d="M168 0v1069h203v-139h16q36 72 116 119t191 47q177 0 284 -117t107 -293v-686h-202v651q0 112 -71.5 183t-174.5 71q-113 0 -189.5 -77.5t-76.5 -194.5v-633h-203z" />
    <glyph glyph-name="Omacron" unicode="&#x14c;" horiz-adv-x="1665" 
d="M569 1651v166h523v-166h-523zM831 -27q-207 0 -375.5 97t-264 267.5t-95.5 379.5q0 156 56.5 294t154.5 236.5t235 155.5t292 57q207 0 375.5 -98t264 -268.5t95.5 -376.5q0 -155 -56.5 -293t-154.5 -237t-235 -156.5t-292 -57.5zM834 172q222 0 371 155t149 390
q0 153 -68 278t-187 196t-265 71q-223 0 -372 -156t-149 -389q0 -235 149 -390t372 -155z" />
    <glyph glyph-name="omacron" unicode="&#x14d;" horiz-adv-x="1306" 
d="M391 1286v166h522v-166h-522zM651 -27q-242 0 -400.5 160t-158.5 402q0 119 42.5 223t116.5 178.5t178 117t224 42.5q243 0 402 -160.5t159 -400.5t-160 -401t-403 -161zM651 164q156 0 256.5 104.5t100.5 266.5q0 161 -100.5 266.5t-256.5 105.5q-154 0 -253 -106
t-99 -266q0 -163 99 -267t253 -104z" />
    <glyph glyph-name="Ohungarumlaut" unicode="&#x150;" horiz-adv-x="1665" 
d="M598 1614l119 289h211l-176 -289h-154zM891 1614l119 289h213l-179 -289h-153zM831 -27q-207 0 -375.5 97t-264 267.5t-95.5 379.5q0 156 56.5 294t154.5 236.5t235 155.5t292 57q207 0 375.5 -98t264 -268.5t95.5 -376.5q0 -155 -56.5 -293t-154.5 -237t-235 -156.5
t-292 -57.5zM834 172q222 0 371 155t149 390q0 153 -68 278t-187 196t-265 71q-223 0 -372 -156t-149 -389q0 -235 149 -390t372 -155z" />
    <glyph glyph-name="ohungarumlaut" unicode="&#x151;" horiz-adv-x="1306" 
d="M420 1249l119 289h211l-177 -289h-153zM713 1249l118 289h213l-178 -289h-153zM651 -27q-242 0 -400.5 160t-158.5 402q0 119 42.5 223t116.5 178.5t178 117t224 42.5q243 0 402 -160.5t159 -400.5t-160 -401t-403 -161zM651 164q156 0 256.5 104.5t100.5 266.5
q0 161 -100.5 266.5t-256.5 105.5q-154 0 -253 -106t-99 -266q0 -163 99 -267t253 -104z" />
    <glyph glyph-name="OE" unicode="&#x152;" horiz-adv-x="2246" 
d="M831 -27q-207 0 -375.5 97t-264 267.5t-95.5 379.5q0 156 56.5 294t154.5 236.5t235 155.5t292 57q100 0 202 -26h1092v-193h-768q171 -171 201 -416h491v-190h-487q-24 -261 -205 -442h788v-193h-1114q-106 -27 -203 -27zM834 172q222 0 371 155t149 390q0 153 -68 278
t-187 196t-265 71q-223 0 -372 -156t-149 -389q0 -235 149 -390t372 -155z" />
    <glyph glyph-name="oe" unicode="&#x153;" horiz-adv-x="2148" 
d="M651 -27q-242 0 -400.5 160t-158.5 402q0 119 42.5 223t116.5 178.5t178 117t224 42.5q148 0 263.5 -63t187.5 -171h14q66 110 174.5 172t247.5 62q160 0 278 -71.5t178 -195.5t60 -284v-64h-833q1 -156 89 -243.5t238 -87.5q104 0 186 54.5t109 151.5l191 -47
q-49 -157 -179.5 -246.5t-306.5 -89.5q-146 0 -260 62t-180 172h-14q-165 -234 -445 -234zM1225 635h624q-7 132 -95 207.5t-214 75.5q-124 0 -214.5 -80.5t-100.5 -202.5zM651 164q156 0 256.5 104.5t100.5 266.5q0 161 -100.5 266.5t-256.5 105.5q-154 0 -253 -106
t-99 -266q0 -163 99 -267t253 -104z" />
    <glyph glyph-name="Racute" unicode="&#x154;" horiz-adv-x="1257" 
d="M492 1614l122 280h213l-182 -280h-153zM188 0v1434h467q220 0 350 -117.5t130 -310.5q0 -159 -83 -271.5t-237 -150.5l371 -584h-250l-334 561h-205v-561h-209zM397 748h258q118 0 191.5 67t73.5 189q0 105 -71 172t-204 67h-248v-495z" />
    <glyph glyph-name="racute" unicode="&#x155;" horiz-adv-x="821" 
d="M354 1249l123 281h213l-182 -281h-154zM168 0v1069h201v-168h14q31 76 108.5 135.5t178.5 59.5h75v-203h-102q-134 0 -203 -93t-69 -251v-549h-203z" />
    <glyph glyph-name="Rcommaaccent" unicode="&#x156;" horiz-adv-x="1257" 
d="M188 0v1434h467q220 0 350 -117.5t130 -310.5q0 -159 -83 -271.5t-237 -150.5l371 -584h-250l-334 561h-205v-561h-209zM397 748h258q118 0 191.5 67t73.5 189q0 105 -71 172t-204 67h-248v-495zM537 -469l32 346h191l-76 -346h-147z" />
    <glyph glyph-name="rcommaaccent" unicode="&#x157;" horiz-adv-x="821" 
d="M168 0v1069h201v-168h14q31 76 108.5 135.5t178.5 59.5h75v-203h-102q-134 0 -203 -93t-69 -251v-549h-203zM324 -469l32 346h191l-76 -346h-147z" />
    <glyph glyph-name="Rcaron" unicode="&#x158;" horiz-adv-x="1257" 
d="M522 1614l-198 272h176l114 -129h15l116 129h175l-199 -272h-199zM188 0v1434h467q220 0 350 -117.5t130 -310.5q0 -159 -83 -271.5t-237 -150.5l371 -584h-250l-334 561h-205v-561h-209zM397 748h258q118 0 191.5 67t73.5 189q0 105 -71 172t-204 67h-248v-495z" />
    <glyph glyph-name="rcaron" unicode="&#x159;" horiz-adv-x="821" 
d="M385 1249l-199 273h176l115 -129h15l116 129h174l-198 -273h-199zM168 0v1069h201v-168h14q31 76 108.5 135.5t178.5 59.5h75v-203h-102q-134 0 -203 -93t-69 -251v-549h-203z" />
    <glyph glyph-name="Sacute" unicode="&#x15a;" horiz-adv-x="1214" 
d="M479 1614l123 280h213l-182 -280h-154zM608 -27q-221 0 -371.5 132.5t-150.5 338.5h209q0 -120 88 -197t233 -77q129 0 209 58t80 155q0 64 -26.5 109.5t-71 71.5t-102.5 45t-122 34t-128 32t-122 46.5t-102.5 71t-71 111t-26.5 161.5q0 80 32 151t91 125.5t149 86.5
t199 32q70 0 137.5 -15t130.5 -48.5t110.5 -83t76 -123.5t28.5 -164h-210q0 112 -73 178t-202 66q-128 0 -194 -59.5t-66 -145.5q0 -51 21.5 -89.5t59 -61t87 -42t105 -31.5t114.5 -29.5t114.5 -36t105 -51.5t87 -75.5t59 -109t21.5 -150.5q0 -178 -137 -297t-371 -119z" />
    <glyph glyph-name="sacute" unicode="&#x15b;" horiz-adv-x="1062" 
d="M406 1249l122 281h213l-182 -281h-153zM526 -27q-178 0 -291 86.5t-133 241.5l189 43q13 -94 76.5 -142t167.5 -48q101 0 155.5 40t54.5 109q0 46 -26 77.5t-69 46.5t-97.5 29t-111.5 24t-111.5 32t-97.5 52.5t-69 86.5t-26 133q0 137 108.5 224.5t282.5 87.5
q152 0 263 -78.5t135 -218.5l-178 -51q-13 80 -73.5 123.5t-152.5 43.5q-87 0 -138.5 -37t-51.5 -96q0 -41 26.5 -69t70 -40.5t99 -24.5t113.5 -21t113.5 -31.5t99 -53t70 -88t26.5 -135.5q0 -156 -116 -251t-308 -95z" />
    <glyph glyph-name="Scedilla" unicode="&#x15e;" horiz-adv-x="1214" 
d="M1116 389q0 -163 -115.5 -277.5t-316.5 -134.5l-33 -368h-182l57 371q-191 24 -315.5 151t-124.5 313h209q0 -120 88 -197t233 -77q129 0 209 58t80 155q0 64 -26.5 109.5t-71 71.5t-102.5 45t-122 34t-128 32t-122 46.5t-102.5 71t-71 111t-26.5 161.5q0 80 32 151
t91 125.5t149 86.5t199 32q70 0 137.5 -15t130.5 -48.5t110.5 -83t76 -123.5t28.5 -164h-210q0 112 -73 178t-202 66q-128 0 -194 -59.5t-66 -145.5q0 -51 21.5 -89.5t59 -61t87 -42t105 -31.5t114.5 -29.5t114.5 -36t105 -51.5t87 -75.5t59 -109t21.5 -150.5z" />
    <glyph glyph-name="scedilla" unicode="&#x15f;" horiz-adv-x="1062" 
d="M950 319q0 -139 -94 -231t-254 -111l-33 -368h-182l57 371q-144 19 -234.5 102.5t-107.5 218.5l189 43q13 -94 76.5 -142t167.5 -48q101 0 155.5 40t54.5 109q0 46 -26 77.5t-69 46.5t-97.5 29t-111.5 24t-111.5 32t-97.5 52.5t-69 86.5t-26 133q0 137 108.5 224.5
t282.5 87.5q152 0 263 -78.5t135 -218.5l-178 -51q-13 80 -73.5 123.5t-152.5 43.5q-87 0 -138.5 -37t-51.5 -96q0 -41 26.5 -69t70 -40.5t99 -24.5t113.5 -21t113.5 -31.5t99 -53t70 -88t26.5 -135.5z" />
    <glyph glyph-name="Scaron" unicode="&#x160;" horiz-adv-x="1214" 
d="M510 1614l-199 272h176l115 -129h14l117 129h174l-198 -272h-199zM608 -27q-221 0 -371.5 132.5t-150.5 338.5h209q0 -120 88 -197t233 -77q129 0 209 58t80 155q0 64 -26.5 109.5t-71 71.5t-102.5 45t-122 34t-128 32t-122 46.5t-102.5 71t-71 111t-26.5 161.5
q0 80 32 151t91 125.5t149 86.5t199 32q70 0 137.5 -15t130.5 -48.5t110.5 -83t76 -123.5t28.5 -164h-210q0 112 -73 178t-202 66q-128 0 -194 -59.5t-66 -145.5q0 -51 21.5 -89.5t59 -61t87 -42t105 -31.5t114.5 -29.5t114.5 -36t105 -51.5t87 -75.5t59 -109t21.5 -150.5
q0 -178 -137 -297t-371 -119z" />
    <glyph glyph-name="scaron" unicode="&#x161;" horiz-adv-x="1062" 
d="M436 1249l-198 273h176l114 -129h15l116 129h175l-199 -273h-199zM526 -27q-178 0 -291 86.5t-133 241.5l189 43q13 -94 76.5 -142t167.5 -48q101 0 155.5 40t54.5 109q0 46 -26 77.5t-69 46.5t-97.5 29t-111.5 24t-111.5 32t-97.5 52.5t-69 86.5t-26 133
q0 137 108.5 224.5t282.5 87.5q152 0 263 -78.5t135 -218.5l-178 -51q-13 80 -73.5 123.5t-152.5 43.5q-87 0 -138.5 -37t-51.5 -96q0 -41 26.5 -69t70 -40.5t99 -24.5t113.5 -21t113.5 -31.5t99 -53t70 -88t26.5 -135.5q0 -156 -116 -251t-308 -95z" />
    <glyph glyph-name="uni0162" unicode="&#x162;" horiz-adv-x="1144" 
d="M469 0v1241h-408v193h1022v-193h-407v-1241h-207zM442 -469l33 346h191l-76 -346h-148z" />
    <glyph glyph-name="uni0163" unicode="&#x163;" horiz-adv-x="890" 
d="M604 0q-157 0 -245.5 76.5t-88.5 236.5v580h-194v176h207v305h190v-305h315v-176h-315v-578q0 -72 31.5 -104.5t101.5 -32.5h170v-178h-172zM424 -469l33 346h190l-76 -346h-147z" />
    <glyph glyph-name="Tcaron" unicode="&#x164;" horiz-adv-x="1144" 
d="M492 1614l-199 272h176l115 -129h14l117 129h174l-199 -272h-198zM469 0v1241h-408v193h1022v-193h-407v-1241h-207z" />
    <glyph glyph-name="tcaron" unicode="&#x165;" horiz-adv-x="890" 
d="M688 1155v381h203l-49 -381h-154zM604 0q-157 0 -245.5 76.5t-88.5 236.5v580h-194v176h207v305h190v-305h315v-176h-315v-578q0 -72 31.5 -104.5t101.5 -32.5h170v-178h-172z" />
    <glyph glyph-name="Tbar" unicode="&#x166;" horiz-adv-x="1144" 
d="M1083 1241h-407v-391h297v-164h-297v-686h-207v686h-295v164h295v391h-408v193h1022v-193z" />
    <glyph glyph-name="tbar" unicode="&#x167;" horiz-adv-x="890" 
d="M788 893h-315v-168h281v-152h-281v-258q0 -72 31.5 -104.5t101.5 -32.5h170v-178h-172q-157 0 -245.5 76.5t-88.5 236.5v260h-188v152h188v168h-194v176h207v305h190v-305h315v-176z" />
    <glyph glyph-name="Umacron" unicode="&#x16a;" horiz-adv-x="1435" 
d="M455 1651v166h522v-166h-522zM717 -27q-258 0 -400.5 149t-142.5 400v912h207v-910q0 -164 87 -259t249 -95q163 0 250.5 95t87.5 261v908h207v-910q0 -249 -145 -400t-400 -151z" />
    <glyph glyph-name="umacron" unicode="&#x16b;" 
d="M354 1286v166h523v-166h-523zM549 -27q-177 0 -284 117t-107 293v686h202v-651q0 -112 71 -182t175 -70q113 0 189.5 77t76.5 193v633h203v-1069h-203v139h-16q-36 -72 -116 -119t-191 -47z" />
    <glyph glyph-name="Uring" unicode="&#x16e;" horiz-adv-x="1435" 
d="M719 1552q-86 0 -142.5 55t-56.5 138q0 84 56 137t141 53q89 0 145 -52.5t56 -135.5q0 -85 -56.5 -140t-142.5 -55zM719 1661q38 0 60 23.5t22 62.5q0 36 -22.5 59t-61.5 23q-35 0 -57.5 -23.5t-22.5 -60.5t22.5 -60.5t59.5 -23.5zM717 -27q-258 0 -400.5 149t-142.5 400
v912h207v-910q0 -164 87 -259t249 -95q163 0 250.5 95t87.5 261v908h207v-910q0 -249 -145 -400t-400 -151z" />
    <glyph glyph-name="uring" unicode="&#x16f;" 
d="M618 1188q-86 0 -142 54.5t-56 137.5q0 84 55.5 137.5t140.5 53.5q89 0 145 -53t56 -136q0 -85 -56.5 -139.5t-142.5 -54.5zM618 1296q38 0 60 23.5t22 62.5q0 36 -22.5 59t-61.5 23q-35 0 -57 -23.5t-22 -60.5t22.5 -60.5t58.5 -23.5zM549 -27q-177 0 -284 117t-107 293
v686h202v-651q0 -112 71 -182t175 -70q113 0 189.5 77t76.5 193v633h203v-1069h-203v139h-16q-36 -72 -116 -119t-191 -47z" />
    <glyph glyph-name="Uhungarumlaut" unicode="&#x170;" horiz-adv-x="1435" 
d="M483 1614l119 289h211l-176 -289h-154zM776 1614l119 289h213l-178 -289h-154zM717 -27q-258 0 -400.5 149t-142.5 400v912h207v-910q0 -164 87 -259t249 -95q163 0 250.5 95t87.5 261v908h207v-910q0 -249 -145 -400t-400 -151z" />
    <glyph glyph-name="uhungarumlaut" unicode="&#x171;" 
d="M383 1249l119 289h211l-176 -289h-154zM676 1249l119 289h213l-179 -289h-153zM549 -27q-177 0 -284 117t-107 293v686h202v-651q0 -112 71 -182t175 -70q113 0 189.5 77t76.5 193v633h203v-1069h-203v139h-16q-36 -72 -116 -119t-191 -47z" />
    <glyph glyph-name="Uogonek" unicode="&#x172;" horiz-adv-x="1435" 
d="M1055 1434h207v-910q0 -199 -95 -338t-268 -188l-90 -92q-45 -48 -45 -84q0 -28 19 -44t51 -16h67v-153h-108q-89 0 -146 40t-57 130q0 73 72 149l43 45q-252 3 -391.5 152t-139.5 397v912h207v-910q0 -164 87 -259t249 -95q163 0 250.5 95t87.5 261v908z" />
    <glyph glyph-name="uogonek" unicode="&#x173;" 
d="M1075 0l-92 -94q-45 -48 -45 -84q0 -28 19 -44t51 -16h67v-153h-108q-89 0 -146 40t-57 130q0 73 72 149l69 72h-33v139h-16q-36 -72 -116 -119t-191 -47q-177 0 -284 117t-107 293v686h202v-651q0 -112 71 -182t175 -70q113 0 189.5 77t76.5 193v633h203v-1069z" />
    <glyph glyph-name="Wcircumflex" unicode="&#x174;" horiz-adv-x="1902" 
d="M668 1614l198 272h199l199 -272h-174l-117 127h-15l-114 -127h-176zM362 0l-327 1434h223l260 -1235h17l253 1235h324l256 -1235h14l260 1235h224l-328 -1434h-328l-252 1235h-16l-250 -1235h-330z" />
    <glyph glyph-name="wcircumflex" unicode="&#x175;" horiz-adv-x="1738" 
d="M582 1249l198 273h199l199 -273h-174l-117 127h-15l-114 -127h-176zM352 0l-307 1069h219l225 -879h15l233 879h264l232 -879h14l228 879h217l-308 -1069h-278l-232 877h-12l-229 -877h-281z" />
    <glyph glyph-name="Ycircumflex" unicode="&#x176;" horiz-adv-x="1265" 
d="M352 1614l199 272h199l198 -272h-174l-117 127h-14l-115 -127h-176zM528 0v629l-493 805h237l349 -603h14l348 603h246l-494 -805v-629h-207z" />
    <glyph glyph-name="ycircumflex" unicode="&#x177;" horiz-adv-x="1134" 
d="M281 1249l198 273h199l199 -273h-175l-116 127h-15l-114 -127h-176zM113 -471v184h137q63 0 99.5 27t60.5 86l67 174h-51l-381 1069h221l281 -874h16l303 874h224l-510 -1333q-80 -207 -332 -207h-135z" />
    <glyph glyph-name="Ydieresis" unicode="&#x178;" horiz-adv-x="1265" 
d="M463 1626q-52 0 -87.5 35t-35.5 88q0 52 36 87.5t87 35.5q56 0 90.5 -35t34.5 -88q0 -55 -34 -89t-91 -34zM842 1626q-55 0 -90 34.5t-35 88.5q0 53 35 88t90 35q53 0 89 -35.5t36 -87.5q0 -53 -36 -88t-89 -35zM528 0v629l-493 805h237l349 -603h14l348 603h246
l-494 -805v-629h-207z" />
    <glyph glyph-name="Zacute" unicode="&#x179;" horiz-adv-x="1296" 
d="M530 1614l123 280h213l-182 -280h-154zM109 0v279l878 950v16h-854v189h1053v-281l-881 -950v-17h885v-186h-1081z" />
    <glyph glyph-name="zacute" unicode="&#x17a;" horiz-adv-x="1050" 
d="M395 1249l123 281h213l-182 -281h-154zM113 0v256l624 623v14h-608v176h801v-258l-627 -621v-14h637v-176h-827z" />
    <glyph glyph-name="Zdotaccent" unicode="&#x17b;" horiz-adv-x="1296" 
d="M657 1612q-58 0 -96.5 39t-38.5 98q0 56 38.5 94.5t96.5 38.5q59 0 98.5 -38.5t39.5 -94.5q0 -59 -39 -98t-99 -39zM109 0v279l878 950v16h-854v189h1053v-281l-881 -950v-17h885v-186h-1081z" />
    <glyph glyph-name="zdotaccent" unicode="&#x17c;" horiz-adv-x="1050" 
d="M522 1247q-58 0 -96.5 39t-38.5 98q0 56 38.5 95t96.5 39q59 0 98 -39t39 -95q0 -59 -38.5 -98t-98.5 -39zM113 0v256l624 623v14h-608v176h801v-258l-627 -621v-14h637v-176h-827z" />
    <glyph glyph-name="Zcaron" unicode="&#x17d;" horiz-adv-x="1296" 
d="M561 1614l-199 272h177l114 -129h15l116 129h174l-198 -272h-199zM109 0v279l878 950v16h-854v189h1053v-281l-881 -950v-17h885v-186h-1081z" />
    <glyph glyph-name="zcaron" unicode="&#x17e;" horiz-adv-x="1050" 
d="M426 1249l-199 273h176l115 -129h14l117 129h174l-198 -273h-199zM113 0v256l624 623v14h-608v176h801v-258l-627 -621v-14h637v-176h-827z" />
    <glyph glyph-name="florin" unicode="&#x192;" horiz-adv-x="1064" 
d="M-31 -377l23 180h112q75 0 117.5 35.5t54.5 120.5l105 729h-137v176h162l38 260q11 77 38 134.5t62.5 92t84.5 55.5t97.5 28.5t107.5 7.5h114l-24 -180h-113q-75 0 -116.5 -35.5t-53.5 -120.5l-35 -242h203v-176h-227l-117 -790q-40 -275 -383 -275h-113z" />
    <glyph glyph-name="Scommaaccent" unicode="&#x218;" horiz-adv-x="1214" 
d="M608 -27q-221 0 -371.5 132.5t-150.5 338.5h209q0 -120 88 -197t233 -77q129 0 209 58t80 155q0 64 -26.5 109.5t-71 71.5t-102.5 45t-122 34t-128 32t-122 46.5t-102.5 71t-71 111t-26.5 161.5q0 80 32 151t91 125.5t149 86.5t199 32q70 0 137.5 -15t130.5 -48.5
t110.5 -83t76 -123.5t28.5 -164h-210q0 112 -73 178t-202 66q-128 0 -194 -59.5t-66 -145.5q0 -51 21.5 -89.5t59 -61t87 -42t105 -31.5t114.5 -29.5t114.5 -36t105 -51.5t87 -75.5t59 -109t21.5 -150.5q0 -178 -137 -297t-371 -119zM477 -469l33 346h190l-75 -346h-148z
" />
    <glyph glyph-name="scommaaccent" unicode="&#x219;" horiz-adv-x="1062" 
d="M526 -27q-178 0 -291 86.5t-133 241.5l189 43q13 -94 76.5 -142t167.5 -48q101 0 155.5 40t54.5 109q0 46 -26 77.5t-69 46.5t-97.5 29t-111.5 24t-111.5 32t-97.5 52.5t-69 86.5t-26 133q0 137 108.5 224.5t282.5 87.5q152 0 263 -78.5t135 -218.5l-178 -51
q-13 80 -73.5 123.5t-152.5 43.5q-87 0 -138.5 -37t-51.5 -96q0 -41 26.5 -69t70 -40.5t99 -24.5t113.5 -21t113.5 -31.5t99 -53t70 -88t26.5 -135.5q0 -156 -116 -251t-308 -95zM395 -469l33 346h190l-75 -346h-148z" />
    <glyph glyph-name="uni021A" unicode="&#x21a;" horiz-adv-x="1144" 
d="M61 1434h1022v-193h-407v-1241h-25l-35 -391h-182l62 391h-27v1241h-408v193z" />
    <glyph glyph-name="uni021B" unicode="&#x21b;" horiz-adv-x="890" 
d="M788 893h-315v-578q0 -72 31.5 -104.5t101.5 -32.5h170v-178h-143l-35 -391h-182l63 405q-209 53 -209 299v580h-194v176h207v305h190v-305h315v-176z" />
    <glyph glyph-name="uni0237" unicode="&#x237;" horiz-adv-x="679" 
d="M14 -471v182h179q69 0 100 31.5t31 101.5v1049h-224v176h426v-1227q0 -160 -88 -236.5t-245 -76.5h-179z" />
    <glyph glyph-name="circumflex" unicode="&#x2c6;" horiz-adv-x="800" 
d="M102 1249l199 273h199l198 -273h-174l-116 127h-15l-114 -127h-177z" />
    <glyph glyph-name="caron" unicode="&#x2c7;" horiz-adv-x="800" 
d="M301 1249l-199 273h177l114 -129h15l116 129h174l-198 -273h-199z" />
    <glyph glyph-name="breve" unicode="&#x2d8;" horiz-adv-x="759" 
d="M381 1237q-133 0 -206 74.5t-73 199.5h162q0 -61 29.5 -97t87.5 -36q55 0 85 37t30 96h161q0 -125 -72 -199.5t-204 -74.5z" />
    <glyph glyph-name="dotaccent" unicode="&#x2d9;" horiz-adv-x="477" 
d="M238 1247q-58 0 -97 39t-39 98q0 56 39 95t97 39q59 0 98 -39t39 -95q0 -59 -38.5 -98t-98.5 -39z" />
    <glyph glyph-name="ring" unicode="&#x2da;" horiz-adv-x="593" 
d="M297 1188q-86 0 -142.5 54.5t-56.5 137.5q0 84 56 137.5t141 53.5q89 0 145 -53t56 -136q0 -85 -56.5 -139.5t-142.5 -54.5zM297 1296q38 0 60 23.5t22 62.5q0 36 -22.5 59t-61.5 23q-35 0 -57.5 -23.5t-22.5 -60.5t22.5 -60.5t59.5 -23.5z" />
    <glyph glyph-name="ogonek" unicode="&#x2db;" horiz-adv-x="516" 
d="M305 -391q-89 0 -146 40t-57 130q0 73 72 149l70 72h170l-92 -94q-46 -49 -46 -84q0 -28 19 -44t51 -16h68v-153h-109z" />
    <glyph glyph-name="tilde" unicode="&#x2dc;" horiz-adv-x="888" 
d="M582 1243q-39 0 -78.5 16t-66.5 35.5t-59.5 35.5t-58.5 16q-34 0 -54.5 -26t-20.5 -75h-142q0 125 59 191.5t150 66.5q50 0 100 -25t91 -50t69 -25q34 0 55 26t21 74h139q0 -125 -57 -192.5t-147 -67.5z" />
    <glyph glyph-name="hungarumlaut" unicode="&#x2dd;" horiz-adv-x="829" 
d="M102 1249l119 289h211l-176 -289h-154zM395 1249l119 289h213l-178 -289h-154z" />
    <glyph glyph-name="uni0326" unicode="&#x326;" horiz-adv-x="0" 
d="M-326 -469l33 346h191l-76 -346h-148z" />
    <glyph glyph-name="Wgrave" unicode="&#x1e80;" horiz-adv-x="1902" 
d="M903 1614l-182 280h211l125 -280h-154zM362 0l-327 1434h223l260 -1235h17l253 1235h324l256 -1235h14l260 1235h224l-328 -1434h-328l-252 1235h-16l-250 -1235h-330z" />
    <glyph glyph-name="wgrave" unicode="&#x1e81;" horiz-adv-x="1738" 
d="M817 1249l-182 281h211l125 -281h-154zM352 0l-307 1069h219l225 -879h15l233 879h264l232 -879h14l228 879h217l-308 -1069h-278l-232 877h-12l-229 -877h-281z" />
    <glyph glyph-name="Wacute" unicode="&#x1e82;" horiz-adv-x="1902" 
d="M836 1614l122 280h213l-182 -280h-153zM362 0l-327 1434h223l260 -1235h17l253 1235h324l256 -1235h14l260 1235h224l-328 -1434h-328l-252 1235h-16l-250 -1235h-330z" />
    <glyph glyph-name="wacute" unicode="&#x1e83;" horiz-adv-x="1738" 
d="M750 1249l122 281h213l-182 -281h-153zM352 0l-307 1069h219l225 -879h15l233 879h264l232 -879h14l228 879h217l-308 -1069h-278l-232 877h-12l-229 -877h-281z" />
    <glyph glyph-name="Wdieresis" unicode="&#x1e84;" horiz-adv-x="1902" 
d="M778 1626q-52 0 -87.5 35t-35.5 88q0 52 36 87.5t87 35.5q56 0 90.5 -35t34.5 -88q0 -55 -34.5 -89t-90.5 -34zM1157 1626q-55 0 -90 34.5t-35 88.5q0 53 35 88t90 35q53 0 89 -35.5t36 -87.5q0 -53 -36 -88t-89 -35zM362 0l-327 1434h223l260 -1235h17l253 1235h324
l256 -1235h14l260 1235h224l-328 -1434h-328l-252 1235h-16l-250 -1235h-330z" />
    <glyph glyph-name="wdieresis" unicode="&#x1e85;" horiz-adv-x="1738" 
d="M692 1262q-52 0 -87.5 34.5t-35.5 87.5q0 52 36 87.5t87 35.5q56 0 90.5 -35t34.5 -88q0 -54 -34 -88t-91 -34zM1071 1262q-55 0 -90 34t-35 88q0 53 35 88t90 35q53 0 89 -35.5t36 -87.5q0 -53 -36 -87.5t-89 -34.5zM352 0l-307 1069h219l225 -879h15l233 879h264
l232 -879h14l228 879h217l-308 -1069h-278l-232 877h-12l-229 -877h-281z" />
    <glyph glyph-name="Ygrave" unicode="&#x1ef2;" horiz-adv-x="1265" 
d="M588 1614l-182 280h210l125 -280h-153zM528 0v629l-493 805h237l349 -603h14l348 603h246l-494 -805v-629h-207z" />
    <glyph glyph-name="ygrave" unicode="&#x1ef3;" horiz-adv-x="1134" 
d="M516 1249l-182 281h211l125 -281h-154zM113 -471v184h137q63 0 99.5 27t60.5 86l67 174h-51l-381 1069h221l281 -874h16l303 874h224l-510 -1333q-80 -207 -332 -207h-135z" />
    <glyph glyph-name="endash" unicode="&#x2013;" horiz-adv-x="1333" 
d="M133 524v178h1067v-178h-1067z" />
    <glyph glyph-name="emdash" unicode="&#x2014;" horiz-adv-x="1857" 
d="M133 524v178h1591v-178h-1591z" />
    <glyph glyph-name="quoteleft" unicode="&#x2018;" horiz-adv-x="514" 
d="M127 989l98 445h160l-37 -445h-221z" />
    <glyph glyph-name="quoteright" unicode="&#x2019;" horiz-adv-x="514" 
d="M127 989l37 445h221l-96 -445h-162z" />
    <glyph glyph-name="quotesinglbase" unicode="&#x201a;" horiz-adv-x="548" 
d="M127 -219l37 444h221l-96 -444h-162z" />
    <glyph glyph-name="quotedblleft" unicode="&#x201c;" horiz-adv-x="843" 
d="M127 989l98 445h160l-37 -445h-221zM457 989l96 445h162l-37 -445h-221z" />
    <glyph glyph-name="quotedblright" unicode="&#x201d;" horiz-adv-x="843" 
d="M127 989l37 445h221l-96 -445h-162zM457 989l37 445h221l-97 -445h-161z" />
    <glyph glyph-name="quotedblbase" unicode="&#x201e;" horiz-adv-x="878" 
d="M127 -219l37 444h221l-96 -444h-162zM457 -219l37 444h221l-97 -444h-161z" />
    <glyph glyph-name="dagger" unicode="&#x2020;" horiz-adv-x="882" 
d="M340 0v895h-227v180h227v359h199v-359h231v-180h-231v-895h-199z" />
    <glyph glyph-name="daggerdbl" unicode="&#x2021;" horiz-adv-x="882" 
d="M340 0v379h-227v182h227v309h-227v183h227v381h199v-381h231v-183h-231v-309h231v-182h-231v-379h-199z" />
    <glyph glyph-name="bullet" unicode="&#x2022;" horiz-adv-x="950" 
d="M475 283q-151 0 -251.5 102t-100.5 250t100.5 250t251.5 102t251.5 -102t100.5 -250t-100.5 -250t-251.5 -102z" />
    <glyph glyph-name="perthousand" unicode="&#x2030;" horiz-adv-x="2416" 
d="M453 834q-136 0 -226 90t-90 221q0 132 90 223.5t224 91.5q140 0 231.5 -91t91.5 -224q0 -130 -92 -220.5t-229 -90.5zM199 0l1077 1434h211l-1079 -1434h-209zM455 981q72 0 115.5 47t43.5 117t-45 118t-116 48q-69 0 -112.5 -48t-43.5 -118q0 -69 44.5 -116.5
t113.5 -47.5zM1227 -27q-136 0 -227 90t-91 222t90.5 223.5t225.5 91.5q138 0 229.5 -91.5t91.5 -223.5q0 -131 -91.5 -221.5t-227.5 -90.5zM1958 -27q-136 0 -227 90t-91 222q0 131 91 223t225 92q139 0 231 -91.5t92 -223.5q0 -131 -92 -221.5t-229 -90.5zM1227 121
q72 0 114.5 46.5t42.5 117.5t-43.5 117.5t-115.5 46.5q-70 0 -114 -47t-44 -117t45 -117t115 -47zM1960 121q71 0 114.5 47t43.5 117t-45 117t-117 47q-68 0 -113 -47t-45 -117t46 -117t116 -47z" />
    <glyph glyph-name="guilsinglleft" unicode="&#x2039;" horiz-adv-x="696" 
d="M371 213l-244 338v88l244 340h198l-260 -377v-16l260 -373h-198z" />
    <glyph glyph-name="guilsinglright" unicode="&#x203a;" horiz-adv-x="696" 
d="M127 213l262 373v16l-262 377h199l243 -340v-88l-243 -338h-199z" />
    <glyph glyph-name="fraction" unicode="&#x2044;" horiz-adv-x="995" 
d="M0 -84l801 1602h194l-802 -1602h-193z" />
    <glyph glyph-name="Euro" unicode="&#x20ac;" horiz-adv-x="1286" 
d="M1098 987h-205v4q0 118 -75.5 196.5t-190.5 78.5t-191 -79t-76 -196v-73h379v-156h-379v-141h379v-156h-379v-25q0 -118 75.5 -195t191.5 -77t191 77t75 195v6h205v-12q0 -105 -40 -193.5t-106.5 -146t-150.5 -89.5t-174 -32t-174 32t-150.5 89.5t-106.5 146t-40 193.5
v31h-115v156h115v141h-115v156h115v81q0 105 40 193.5t106.5 146t150.5 89.5t174 32t174 -32t150.5 -89.5t106.5 -146t40 -193.5v-12z" />
    <glyph glyph-name="uni2116" unicode="&#x2116;" horiz-adv-x="2385" 
d="M1874 731q-161 0 -265 105.5t-104 257.5t104 259t265 107t265 -107t104 -259t-104 -257.5t-265 -105.5zM188 0v1434h349l553 -1235h14v1235h205v-1434h-353l-544 1235h-15v-1235h-209zM1874 899q90 0 143.5 56.5t53.5 138.5q0 83 -54 140.5t-143 57.5q-87 0 -142 -58
t-55 -140t55 -138.5t142 -56.5zM1534 432v182h678v-182h-678z" />
    <glyph glyph-name="trademark" unicode="&#x2122;" horiz-adv-x="1669" 
d="M305 696v613h-188v125h510v-125h-187v-613h-135zM741 696v738h232l166 -613h12l170 613h231v-738h-131v613h-12l-168 -613h-188l-170 613h-13v-613h-129z" />
    <glyph glyph-name="arrowleft" unicode="&#x2190;" horiz-adv-x="1667" 
d="M1565 637h-1149v-16l424 -412l-144 -143l-594 591v164l594 592l144 -143l-424 -414v-16h1149v-203z" />
    <glyph glyph-name="arrowup" unicode="&#x2191;" horiz-adv-x="1552" 
d="M858 1462l592 -594l-143 -143l-412 424h-16v-1149h-203v1149h-17l-413 -424l-144 143l592 594h164z" />
    <glyph glyph-name="arrowright" unicode="&#x2192;" horiz-adv-x="1667" 
d="M971 1413l594 -592v-164l-594 -591l-144 143l424 412v16h-1149v203h1149v16l-424 414z" />
    <glyph glyph-name="arrowdown" unicode="&#x2193;" horiz-adv-x="1552" 
d="M1307 737l143 -143l-592 -594h-164l-592 594l144 143l413 -424h17v1149h203v-1149h16z" />
    <glyph glyph-name="uni2196" unicode="&#x2196;" horiz-adv-x="1368" 
d="M1122 268l-811 813l-14 -14l10 -590h-203l-2 840l115 115l840 -2v-203l-592 8l-10 -10l811 -813z" />
    <glyph glyph-name="uni2197" unicode="&#x2197;" horiz-adv-x="1368" 
d="M1151 1432l115 -115l-2 -840h-203l10 590l-12 14l-813 -813l-144 144l813 813l-12 10l-592 -8v203z" />
    <glyph glyph-name="uni2198" unicode="&#x2198;" horiz-adv-x="1368" 
d="M1264 956l2 -839l-115 -115l-840 2v203l590 -10l14 14l-813 811l144 143l813 -811l10 11l-8 591h203z" />
    <glyph glyph-name="uni2199" unicode="&#x2199;" horiz-adv-x="1368" 
d="M455 211l12 -14l590 10v-203l-840 -2l-115 115l2 839h203l-8 -591l12 -11l811 811l144 -143z" />
    <glyph glyph-name="minus" unicode="&#x2212;" horiz-adv-x="993" 
d="M10 549v176h973v-176h-973z" />
    <glyph glyph-name="i.loclTRK" horiz-adv-x="665" 
d="M403 1247q-58 0 -96.5 39t-38.5 98q0 56 38.5 95t96.5 39q59 0 98.5 -39t39.5 -95q0 -59 -39 -98t-99 -39zM301 0v893h-195v176h398v-1069h-203z" />
    <glyph glyph-name="zero.tf" horiz-adv-x="1253" 
d="M627 -27q-90 0 -174 32t-150.5 89.5t-106.5 146t-40 193.5v565q0 105 40 193.5t106.5 146t150.5 89.5t174 32t174 -32t150.5 -89.5t106.5 -146t40 -193.5v-565q0 -105 -40 -193.5t-106.5 -146t-150.5 -89.5t-174 -32zM627 168q116 0 191 77t75 195v551q0 118 -75.5 196.5
t-190.5 78.5t-191 -79t-76 -196v-551q0 -118 75.5 -195t191.5 -77z" />
    <glyph glyph-name="one.tf" horiz-adv-x="1253" 
d="M276 0v188h289v1047h-16l-328 -172v205l318 166h229v-1246h260v-188h-752z" />
    <glyph glyph-name="two.tf" horiz-adv-x="1253" 
d="M184 0v258l559 559q107 107 107 225q0 98 -64 162t-174 64q-104 0 -169.5 -70t-65.5 -174h-195q0 80 28 156.5t80 139.5t137 101.5t189 38.5q100 0 185 -34.5t140.5 -92t86.5 -131t31 -153.5q0 -106 -40 -184t-116 -156l-520 -504v-17h688v-188h-887z" />
    <glyph glyph-name="three.tf" horiz-adv-x="1253" 
d="M606 -27q-107 0 -193.5 40t-138.5 104.5t-80 140t-28 152.5h199q0 -100 68 -171t173 -71q113 0 193 73t80 191q0 115 -77.5 184.5t-203.5 69.5h-160v242l410 303v16h-649v185h848v-285l-385 -270v-17h14q80 0 149 -27.5t116 -72t80 -101t48.5 -113.5t15.5 -110
q0 -197 -130 -330t-349 -133z" />
    <glyph glyph-name="four.tf" horiz-adv-x="1253" 
d="M760 0v346h-651v223l548 865h306v-902h180v-186h-180v-346h-203zM305 532h455v703h-17l-438 -686v-17z" />
    <glyph glyph-name="five.tf" horiz-adv-x="1253" 
d="M623 -27q-192 0 -320.5 110t-138.5 310h192q12 -113 82 -171t178 -58q115 0 190 77.5t75 196.5q0 121 -74.5 200t-202.5 79q-45 0 -85.5 -13t-65.5 -31.5t-43.5 -36.5t-26.5 -31l-8 -13h-180l47 842h764v-189h-584l-27 -426h15q101 84 227 84q199 0 324.5 -135.5
t125.5 -329.5q0 -205 -131 -335t-333 -130z" />
    <glyph glyph-name="six.tf" horiz-adv-x="1253" 
d="M625 -27q-199 0 -336 137.5t-137 340.5q0 126 77 270l392 713h233l-305 -527l10 -10q40 16 98 16q186 0 314.5 -131.5t128.5 -330.5q0 -200 -139 -339t-336 -139zM627 168q116 0 192 81.5t76 201.5q0 117 -76.5 199.5t-191.5 82.5t-191 -82.5t-76 -199.5
q0 -121 75.5 -202t191.5 -81z" />
    <glyph glyph-name="seven.tf" horiz-adv-x="1253" 
d="M356 0l521 1229v16h-515v-145h-186v334h899v-230l-500 -1204h-219z" />
    <glyph glyph-name="eight.tf" horiz-adv-x="1253" 
d="M625 -25q-210 0 -341.5 120t-131.5 313q0 69 21 129.5t55 102.5t70.5 71t74.5 47v16q-66 37 -115 116t-49 183q0 171 121.5 279t294.5 108q176 0 296.5 -108t120.5 -279q0 -104 -48.5 -183.5t-114.5 -115.5v-16q38 -18 74.5 -47t70.5 -71t55 -102.5t21 -129.5
q0 -193 -132 -313t-343 -120zM625 856q97 0 156 60.5t59 148.5q0 89 -58.5 149t-156.5 60q-97 0 -155 -60t-58 -149q0 -88 58.5 -148.5t154.5 -60.5zM625 164q124 0 196 72.5t72 173.5q0 115 -75 182t-193 67q-116 0 -191.5 -67.5t-75.5 -181.5q0 -101 72 -173.5t195 -72.5z
" />
    <glyph glyph-name="nine.tf" horiz-adv-x="1253" 
d="M399 0l306 526l-13 11q-42 -17 -96 -17q-188 0 -316 132t-128 331q0 200 139 338.5t338 138.5q129 0 237 -62t171 -171.5t63 -243.5q0 -130 -78 -270l-389 -713h-234zM627 700q115 0 190.5 82.5t75.5 200.5q0 121 -75 202t-191 81t-192.5 -81.5t-76.5 -201.5
q0 -117 77 -200t192 -83z" />
    <glyph glyph-name="caron.Slovak" horiz-adv-x="407" 
d="M102 1053v381h203l-49 -381h-154z" />
    </font>
</defs>
</svg>
